<svg width="48" height="50" viewBox="0 0 48 50" fill="none" xmlns="http://www.w3.org/2000/svg">
<g clip-path="url(#clip0_248_10235)">
<g clip-path="url(#clip1_248_10235)">
<path d="M40.2865 17.6956C39.3577 15.4883 38.0279 13.5064 36.334 11.8048C34.6407 10.1033 32.6679 8.76695 30.472 7.8329C28.1977 6.86664 25.7823 6.37598 23.2932 6.37598C20.8041 6.37598 18.3879 6.86596 16.1143 7.8329C13.9178 8.76626 11.9456 10.1026 10.2524 11.8048C8.55908 13.5064 7.22929 15.4889 6.2998 17.6956C5.33758 19.981 4.84999 22.4083 4.84999 24.9096C4.84999 27.4109 5.33758 29.8389 6.2998 32.1236C7.22861 34.3309 8.5584 36.3128 10.2524 38.0144C11.9456 39.7159 13.9185 41.0522 16.1143 41.9863C18.3886 42.9532 20.8041 43.4432 23.2932 43.4432C25.7823 43.4432 28.1984 42.9532 30.472 41.9863C32.6685 41.0529 34.6407 39.7166 36.334 38.0144C38.0273 36.3128 39.357 34.3303 40.2865 32.1236C41.2481 29.8382 41.7363 27.4109 41.7363 24.9096C41.7363 22.4083 41.2488 19.9803 40.2865 17.6956ZM35.1399 27.4404H38.1555L38.1466 28.2463L35.1399 28.2401V27.4404ZM38.4732 26.9737C38.4685 26.9737 38.4637 26.9723 38.4582 26.9723H35.1399V26.2877H40.4959C40.4775 26.518 40.4543 26.7469 40.4277 26.9744H38.4732V26.9737ZM23.2925 7.56701C30.234 7.56701 36.2303 11.7068 38.9677 17.6586C37.9509 16.9609 36.988 16.3195 35.9821 15.6699L35.7693 15.5321L35.5293 15.6123C35.3568 15.6699 35.2306 15.7329 35.0642 15.8446L35.054 15.8515C34.1006 16.5224 33.2182 17.1227 32.3207 17.7285C31.7254 17.503 30.7632 17.2371 30.5054 17.1782C30.3452 17.1158 30.0533 17.0644 29.5152 16.9815C29.3884 16.9623 29.269 16.9438 29.2138 16.9328C28.9888 16.8842 28.6533 16.9054 28.2652 16.9308C27.9665 16.95 27.5164 16.9794 27.3705 16.9349C27.1305 16.841 26.9845 16.5984 26.9047 16.4107C26.887 16.3682 26.8611 16.3298 26.8284 16.2976L26.7445 16.2133C26.7233 16.1674 26.7022 16.118 26.6797 16.0673C26.5863 15.8521 26.4806 15.6082 26.278 15.404C26.2733 15.3992 26.2692 15.3951 26.2644 15.3909C25.6847 14.8667 24.9912 14.5693 24.3209 14.2821C23.939 14.1184 23.5782 13.9642 23.2393 13.7716C23.0149 13.6428 22.7858 13.6065 22.5833 13.5749C22.4517 13.5544 22.3275 13.5345 22.2137 13.492C22.2062 13.4893 22.1986 13.4865 22.1905 13.4845C21.9634 13.4159 21.7288 13.3029 21.4806 13.1829C21.3087 13.1 21.1314 13.0144 20.9507 12.9417C20.9357 12.9356 20.92 12.9308 20.9043 12.9266C20.6063 12.852 20.3124 12.9328 20.0969 13.1494C19.9851 13.2618 19.9271 13.3926 19.8841 13.4886C19.8841 13.49 19.8828 13.4906 19.8828 13.492L19.8009 13.5742C19.7757 13.5996 19.7539 13.6291 19.7375 13.6606C19.5097 14.0937 19.121 14.4014 18.7098 14.7276C18.5134 14.8831 18.3109 15.0435 18.1179 15.2237C18.1049 15.2361 18.0927 15.2491 18.0818 15.2628C18.0061 15.358 17.9474 15.4595 17.8963 15.5486C17.8553 15.6198 17.7933 15.7267 17.7606 15.75C17.7524 15.7535 17.7442 15.7569 17.736 15.761C17.2198 16.02 16.9088 16.4285 16.6081 16.8232C16.4608 17.0164 16.321 17.1994 16.1628 17.3591C16.158 17.3625 16.1403 17.3714 16.128 17.3776C16.0734 17.405 15.9909 17.4461 15.9077 17.5304C15.8934 17.5448 15.8811 17.5599 15.8695 17.5756C15.6718 17.8539 15.4897 17.9896 15.3281 17.9806C14.8541 17.8765 14.3911 17.7607 13.943 17.6476C13.4827 17.5318 13.0067 17.4125 12.513 17.3043C12.1413 17.2241 11.859 17.0404 11.5324 16.828C11.4076 16.7464 11.278 16.6622 11.1368 16.5799C11.13 16.5758 11.1232 16.5724 11.1164 16.569C10.9445 16.4826 10.7249 16.4977 10.4985 16.6114C10.474 16.6238 10.4508 16.6389 10.4297 16.6567C10.4249 16.6594 10.4194 16.6615 10.414 16.6649C10.3274 16.6759 10.2169 16.7074 10.1241 16.7917C10.1119 16.7958 10.0914 16.8013 10.0757 16.8054C10.028 16.8184 9.96798 16.8348 9.90592 16.8664C9.64065 17 9.42311 17.1857 9.23148 17.3495C9.08282 17.477 8.94165 17.5969 8.79776 17.6784C8.67092 17.7422 8.54681 17.8059 8.42406 17.8689C8.06263 18.0547 7.72029 18.2301 7.35818 18.3822C7.33704 18.3891 7.31658 18.3946 7.29612 18.4007C9.86228 12.0529 16.0652 7.56564 23.2918 7.56564L23.2925 7.56701ZM6.03453 24.9096C6.03453 22.9188 6.37141 21.0055 6.98857 19.2231C7.1836 19.184 7.38478 19.1374 7.59823 19.0655C7.60641 19.0627 7.61459 19.0593 7.62278 19.0559C8.01489 18.8914 8.37291 18.7077 8.75139 18.5138C8.87482 18.4508 8.99962 18.3863 9.12714 18.3226C9.13192 18.3205 9.13669 18.3178 9.14078 18.3151C9.34946 18.1986 9.52608 18.0478 9.69725 17.9012C9.87251 17.7518 10.0375 17.6106 10.223 17.516C10.2312 17.5133 10.2503 17.5078 10.2646 17.5044C10.3342 17.4852 10.4406 17.4564 10.5435 17.3817C10.624 17.379 10.7011 17.3495 10.7624 17.2981C10.7836 17.2878 10.8129 17.2721 10.8463 17.2481C10.9473 17.3097 11.0455 17.3735 11.1409 17.4352C11.4949 17.6654 11.8604 17.9039 12.3609 18.0115C12.8424 18.1163 13.3129 18.2349 13.7678 18.3493C14.2281 18.4651 14.7041 18.5844 15.1964 18.692C15.2087 18.6947 15.221 18.6968 15.2333 18.6981C15.6656 18.7461 16.0659 18.5241 16.4253 18.0368C16.4328 18.0327 16.4424 18.0279 16.4499 18.0245C16.5044 17.9971 16.5869 17.956 16.6701 17.8717C16.8638 17.6771 17.0241 17.4667 17.1795 17.2632C17.44 16.9219 17.6862 16.5991 18.0483 16.4134C18.2904 16.3085 18.4173 16.0893 18.5196 15.9118C18.5571 15.8467 18.5925 15.785 18.63 15.7343C18.7964 15.5815 18.9792 15.4362 19.1565 15.2957C19.595 14.9482 20.0485 14.5892 20.3479 14.0491L20.4379 13.9587C20.4651 13.9313 20.4877 13.8998 20.5054 13.8648C20.5177 13.8401 20.5299 13.8134 20.5429 13.7846C20.5606 13.7449 20.5899 13.6791 20.6077 13.6613C20.6288 13.64 20.6595 13.6174 20.7134 13.625C20.862 13.6859 21.0127 13.7586 21.171 13.8353C21.4294 13.9601 21.6967 14.0889 21.9736 14.1739C22.1516 14.2397 22.3221 14.2664 22.4728 14.2897C22.6344 14.315 22.7735 14.337 22.8847 14.4007C23.2598 14.6138 23.656 14.7838 24.0392 14.9476C24.6802 15.2224 25.2865 15.4814 25.7761 15.9214C25.8791 16.0283 25.948 16.1872 26.0209 16.3558C26.0537 16.4312 26.0878 16.5093 26.126 16.5875C26.143 16.6224 26.1662 16.6539 26.1935 16.6813L26.2733 16.7615C26.469 17.1837 26.7622 17.4776 27.1257 17.6147C27.1298 17.6161 27.1339 17.6174 27.138 17.6195C27.4107 17.7106 27.8486 17.6825 28.3116 17.6524C28.5905 17.6346 28.9376 17.612 29.0624 17.6401C29.0651 17.6401 29.0672 17.6414 29.0699 17.6414C29.1395 17.6551 29.2575 17.6736 29.4061 17.6963C29.6414 17.7326 30.1297 17.8073 30.2408 17.8504C30.2715 17.8648 30.3036 17.8751 30.337 17.8806C30.4809 17.9046 31.068 18.0718 31.5713 18.2328C31.1226 18.535 30.6664 18.8427 30.1938 19.1635L30.1788 19.1744C29.9428 19.3471 29.7103 19.489 29.4852 19.6267C29.2868 19.748 29.0815 19.8741 28.8749 20.0194L28.8394 20.0468C28.5741 20.2688 28.3055 20.4422 28.0211 20.6259C27.7995 20.7691 27.5696 20.9178 27.3364 21.0932L27.2519 21.157L27.198 21.2488C26.9961 21.5935 26.7711 22.0129 26.5529 22.4179C26.3701 22.7578 26.1826 23.1066 26.0107 23.4081C25.8539 23.4102 25.6977 23.4143 25.5422 23.4184L24.6939 23.4438L22.9229 23.4136L20.6895 21.7778C20.5006 21.6394 20.2401 21.673 20.0908 21.8484C20.058 21.8628 20.0267 21.8813 19.9973 21.9032L18.0927 23.3389C18.0142 23.3979 17.959 23.476 17.9276 23.5623C17.8819 23.6411 17.8553 23.7323 17.8553 23.8296V25.2461C16.22 26.4392 14.6939 27.5685 13.0831 28.7609C11.5003 29.9328 9.86296 31.145 8.11241 32.4224L8.079 32.4471L8.04967 32.4765C7.9692 32.5574 7.92215 32.6465 7.89419 32.7342C6.70556 30.3823 6.03521 27.7234 6.03521 24.9096H6.03453ZM22.3875 28.0455L22.4435 28.0688L22.8479 28.2339C22.9508 28.275 23.0531 28.3162 23.1561 28.3573V30.3789H22.3875V28.0455ZM21.9218 32.4101H21.1491V27.5137C21.1798 27.5267 21.2112 27.539 21.2419 27.5528L21.6408 27.7282L21.9225 27.8495V32.4108L21.9218 32.4101ZM20.6834 32.6444V35.916H19.88V26.9634C20.0553 27.0669 20.2381 27.156 20.4283 27.2314C20.5129 27.2649 20.5981 27.2971 20.6834 27.3293V32.6444ZM18.6109 26.2857L19.4143 26.7167V32.4101H18.6109V26.2857ZM8.90415 34.4749L8.91029 33.1557C9.19193 32.9501 9.47016 32.7466 9.74635 32.5437V35.6426C9.45039 35.2657 9.16942 34.8757 8.90483 34.4749H8.90415ZM10.2537 36.2593V32.1709C10.5313 31.9674 10.8054 31.7652 11.0775 31.5644V36.6486H10.6015C10.4842 36.5204 10.3676 36.3909 10.2537 36.2593ZM11.5433 31.2204C11.8045 31.0278 12.0629 30.8367 12.32 30.6461V33.7971H11.5433V31.2204ZM33.6724 38.7558C33.6649 36.9405 33.6662 35.1622 33.6771 33.3482C33.6771 33.266 33.7105 31.3369 35.665 31.3369C37.6195 31.3369 37.6522 33.2591 37.6529 33.3462C37.6467 33.7382 37.6447 34.1281 37.6474 34.5269C36.5665 36.1504 35.2211 37.5813 33.6724 38.7565V38.7558ZM38.2421 33.5668C38.2428 33.4949 38.2434 33.4236 38.2448 33.3517C38.2448 33.351 38.2448 33.3503 38.2448 33.3489C38.2448 33.3476 38.2448 33.3476 38.2448 33.3462C38.2448 33.3195 38.2414 32.6917 37.9284 32.0599C37.6304 31.4582 36.9962 30.7407 35.6643 30.7407C34.3325 30.7407 33.6983 31.4582 33.4003 32.0599C33.0907 32.6862 33.0838 33.3064 33.0838 33.3448C33.0729 35.302 33.0722 37.2181 33.0811 39.1841C30.2974 41.1173 26.9245 42.2522 23.2925 42.2522C18.5093 42.2522 14.1749 40.2861 11.0461 37.1166H11.31C11.4389 37.1166 11.5426 37.0118 11.5426 36.883V34.2658H12.5525C12.6814 34.2658 12.7851 34.161 12.7851 34.0322V30.3028C13.0954 30.0732 13.4043 29.8444 13.7105 29.6175C15.2101 28.5074 16.636 27.452 18.1445 26.3494V32.6444C18.1445 32.774 18.2488 32.8781 18.377 32.8781H19.4136V36.1497C19.4136 36.2792 19.5179 36.3834 19.6461 36.3834H20.9152C21.0441 36.3834 21.1478 36.2785 21.1478 36.1497V32.8781H22.1536C22.2825 32.8781 22.3862 32.7733 22.3862 32.6444V30.8469H23.3873C23.5162 30.8469 23.6198 30.7421 23.6198 30.6133V28.543C23.9042 28.6547 24.1892 28.7643 24.4777 28.8692C24.4995 28.8767 24.5248 28.8699 24.5391 28.8507C24.5568 28.8267 24.5514 28.7931 24.5275 28.7753C24.0563 28.4272 23.5755 28.0976 23.0954 27.7659L22.734 27.5205L22.3712 27.278L22.0057 27.0395L21.6388 26.8037C21.3933 26.6482 21.1594 26.4707 20.9207 26.3035C20.7257 26.1671 20.5204 26.0506 20.3049 25.9526C20.281 25.9341 20.2551 25.9163 20.2271 25.9012L18.9124 25.1954V23.944L20.5006 22.7468L22.5478 24.2462L22.5737 24.2661H22.5758L22.6255 24.3024L22.8963 24.3072C23.1527 24.3374 23.4077 24.36 23.6621 24.373C23.9813 24.3908 24.299 24.3997 24.6134 24.4052C24.9278 24.4107 25.2401 24.41 25.549 24.4134C25.6868 24.4148 25.8232 24.4169 25.9596 24.4196C25.9589 24.5772 25.9582 24.7342 25.9596 24.8918L25.9582 25.8923L25.9623 27.8933C25.9712 29.2276 25.9841 30.5625 26.0128 31.8975C26.0421 33.2331 26.0837 34.5687 26.1471 35.9044C26.2119 37.2407 26.2903 38.5763 26.4233 39.9119C26.5576 38.577 26.6477 37.242 26.7281 35.9078C26.8072 34.5735 26.8679 33.2386 26.915 31.903C26.962 30.568 26.99 29.2317 27.0064 27.8954C27.0111 27.2272 27.0159 26.5591 27.0145 25.8902C27.0111 25.2707 27.0091 24.6512 26.9989 24.0317C27.0016 24.0119 27.0016 23.9913 26.9982 23.9708C26.9982 23.942 26.9975 23.9132 26.9968 23.8844L26.9954 23.8172C27.1543 23.5349 27.3207 23.2258 27.483 22.9229C27.6767 22.5625 27.8765 22.1911 28.0552 21.8806C28.2298 21.7538 28.4071 21.6394 28.5926 21.5195C28.8858 21.3303 29.1886 21.1343 29.4982 20.8774C29.6714 20.7567 29.848 20.6485 30.0349 20.534C30.2756 20.3867 30.5252 20.2339 30.7932 20.0386C31.2678 19.7165 31.7261 19.4081 32.1769 19.1045C33.3396 18.3212 34.4382 17.5811 35.6555 16.7245C35.6561 16.7245 35.6568 16.7238 35.6575 16.7231C36.7541 17.4352 37.807 18.1424 38.9506 18.9346L38.9813 18.9558L39.0058 18.9681C39.057 18.9983 39.2418 19.121 39.3652 19.2032C39.4968 19.2909 39.5889 19.3519 39.6564 19.3951C40.0015 20.4258 40.2518 21.5003 40.3984 22.607C39.8351 22.5454 39.3414 22.5515 39.0577 22.5639V22.3124C39.0577 22.2082 38.9888 22.1164 38.8892 22.0876L36.9191 21.5202C36.8693 21.5058 36.8168 21.5085 36.7684 21.5277L34.7982 22.3199C34.7096 22.3555 34.6516 22.4412 34.6516 22.5371V23.4397C32.2607 23.2985 28.6021 25.1405 28.4418 25.2221C28.3273 25.2803 28.2809 25.4208 28.3389 25.5366C28.3798 25.6182 28.4616 25.6648 28.5469 25.6648C28.5823 25.6648 28.6178 25.6566 28.6519 25.6394C28.6914 25.6196 32.6201 23.6398 34.8548 23.9283C34.921 23.9365 34.9878 23.9159 35.0383 23.8721C35.0888 23.8275 35.1174 23.7638 35.1174 23.6966V22.6954L36.8673 21.9916L38.5919 22.4885V22.8126C38.5919 22.8784 38.6199 22.9414 38.6683 22.9853C38.7167 23.0299 38.7815 23.0518 38.847 23.0449C38.8558 23.0442 39.5889 22.9778 40.4557 23.084C40.5184 23.6829 40.5511 24.2915 40.5511 24.9069C40.5511 25.2118 40.5429 25.5154 40.5273 25.8169H34.9074C34.7785 25.8169 34.6748 25.9218 34.6748 26.0506V28.4704C34.6748 28.5992 34.7785 28.704 34.9074 28.704L38.3771 28.7109C38.5046 28.7109 38.6083 28.6074 38.6096 28.4793L38.6212 27.4383H40.3663C40.0444 29.6408 39.3093 31.7097 38.2421 33.5634V33.5668Z" fill="#FBFBFB"/>

</g>
</g>
<defs>
<clipPath id="clip0_248_10235">
<rect width="48" height="50" fill="white"/>
</clipPath>
<clipPath id="clip1_248_10235">
<rect width="48" height="50" fill="white"/>
</clipPath>
</defs>
</svg>
