<svg width="48" height="50" viewBox="0 0 48 50" fill="none" xmlns="http://www.w3.org/2000/svg">
<g clip-path="url(#clip0_248_10235)">
<g clip-path="url(#clip1_248_10235)">
<path d="M40.2865 17.6956C39.3577 15.4883 38.0279 13.5064 36.334 11.8048C34.6407 10.1033 32.6679 8.76695 30.472 7.8329C28.1977 6.86664 25.7823 6.37598 23.2932 6.37598C20.8041 6.37598 18.3879 6.86596 16.1143 7.8329C13.9178 8.76626 11.9456 10.1026 10.2524 11.8048C8.55908 13.5064 7.22929 15.4889 6.2998 17.6956C5.33758 19.981 4.84999 22.4083 4.84999 24.9096C4.84999 27.4109 5.33758 29.8389 6.2998 32.1236C7.22861 34.3309 8.5584 36.3128 10.2524 38.0144C11.9456 39.7159 13.9185 41.0522 16.1143 41.9863C18.3886 42.9532 20.8041 43.4432 23.2932 43.4432C25.7823 43.4432 28.1984 42.9532 30.472 41.9863C32.6685 41.0529 34.6407 39.7166 36.334 38.0144C38.0273 36.3128 39.357 34.3303 40.2865 32.1236C41.2481 29.8382 41.7363 27.4109 41.7363 24.9096C41.7363 22.4083 41.2488 19.9803 40.2865 17.6956ZM35.1399 27.4404H38.1555L38.1466 28.2463L35.1399 28.2401V27.4404ZM38.4732 26.9737C38.4685 26.9737 38.4637 26.9723 38.4582 26.9723H35.1399V26.2877H40.4959C40.4775 26.518 40.4543 26.7469 40.4277 26.9744H38.4732V26.9737ZM23.2925 7.56701C30.234 7.56701 36.2303 11.7068 38.9677 17.6586C37.9509 16.9609 36.988 16.3195 35.9821 15.6699L35.7693 15.5321L35.5293 15.6123C35.3568 15.6699 35.2306 15.7329 35.0642 15.8446L35.054 15.8515C34.1006 16.5224 33.2182 17.1227 32.3207 17.7285C31.7254 17.503 30.7632 17.2371 30.5054 17.1782C30.3452 17.1158 30.0533 17.0644 29.5152 16.9815C29.3884 16.9623 29.269 16.9438 29.2138 16.9328C28.9888 16.8842 28.6533 16.9054 28.2652 16.9308C27.9665 16.95 27.5164 16.9794 27.3705 16.9349C27.1305 16.841 26.9845 16.5984 26.9047 16.4107C26.887 16.3682 26.8611 16.3298 26.8284 16.2976L26.7445 16.2133C26.7233 16.1674 26.7022 16.118 26.6797 16.0673C26.5863 15.8521 26.4806 15.6082 26.278 15.404C26.2733 15.3992 26.2692 15.3951 26.2644 15.3909C25.6847 14.8667 24.9912 14.5693 24.3209 14.2821C23.939 14.1184 23.5782 13.9642 23.2393 13.7716C23.0149 13.6428 22.7858 13.6065 22.5833 13.5749C22.4517 13.5544 22.3275 13.5345 22.2137 13.492C22.2062 13.4893 22.1986 13.4865 22.1905 13.4845C21.9634 13.4159 21.7288 13.3029 21.4806 13.1829C21.3087 13.1 21.1314 13.0144 20.9507 12.9417C20.9357 12.9356 20.92 12.9308 20.9043 12.9266C20.6063 12.852 20.3124 12.9328 20.0969 13.1494C19.9851 13.2618 19.9271 13.3926 19.8841 13.4886C19.8841 13.49 19.8828 13.4906 19.8828 13.492L19.8009 13.5742C19.7757 13.5996 19.7539 13.6291 19.7375 13.6606C19.5097 14.0937 19.121 14.4014 18.7098 14.7276C18.5134 14.8831 18.3109 15.0435 18.1179 15.2237C18.1049 15.2361 18.0927 15.2491 18.0818 15.2628C18.0061 15.358 17.9474 15.4595 17.8963 15.5486C17.8553 15.6198 17.7933 15.7267 17.7606 15.75C17.7524 15.7535 17.7442 15.7569 17.736 15.761C17.2198 16.02 16.9088 16.4285 16.6081 16.8232C16.4608 17.0164 16.321 17.1994 16.1628 17.3591C16.158 17.3625 16.1403 17.3714 16.128 17.3776C16.0734 17.405 15.9909 17.4461 15.9077 17.5304C15.8934 17.5448 15.8811 17.5599 15.8695 17.5756C15.6718 17.8539 15.4897 17.9896 15.3281 17.9806C14.8541 17.8765 14.3911 17.7607 13.943 17.6476C13.4827 17.5318 13.0067 17.4125 12.513 17.3043C12.1413 17.2241 11.859 17.0404 11.5324 16.828C11.4076 16.7464 11.278 16.6622 11.1368 16.5799C11.13 16.5758 11.1232 16.5724 11.1164 16.569C10.9445 16.4826 10.7249 16.4977 10.4985 16.6114C10.474 16.6238 10.4508 16.6389 10.4297 16.6567C10.4249 16.6594 10.4194 16.6615 10.414 16.6649C10.3274 16.6759 10.2169 16.7074 10.1241 16.7917C10.1119 16.7958 10.0914 16.8013 10.0757 16.8054C10.028 16.8184 9.96798 16.8348 9.90592 16.8664C9.64065 17 9.42311 17.1857 9.23148 17.3495C9.08282 17.477 8.94165 17.5969 8.79776 17.6784C8.67092 17.7422 8.54681 17.8059 8.42406 17.8689C8.06263 18.0547 7.72029 18.2301 7.35818 18.3822C7.33704 18.3891 7.31658 18.3946 7.29612 18.4007C9.86228 12.0529 16.0652 7.56564 23.2918 7.56564L23.2925 7.56701ZM6.03453 24.9096C6.03453 22.9188 6.37141 21.0055 6.98857 19.2231C7.1836 19.184 7.38478 19.1374 7.59823 19.0655C7.60641 19.0627 7.61459 19.0593 7.62278 19.0559C8.01489 18.8914 8.37291 18.7077 8.75139 18.5138C8.87482 18.4508 8.99962 18.3863 9.12714 18.3226C9.13192 18.3205 9.13669 18.3178 9.14078 18.3151C9.34946 18.1986 9.52608 18.0478 9.69725 17.9012C9.87251 17.7518 10.0375 17.6106 10.223 17.516C10.2312 17.5133 10.2503 17.5078 10.2646 17.5044C10.3342 17.4852 10.4406 17.4564 10.5435 17.3817C10.624 17.379 10.7011 17.3495 10.7624 17.2981C10.7836 17.2878 10.8129 17.2721 10.8463 17.2481C10.9473 17.3097 11.0455 17.3735 11.1409 17.4352C11.4949 17.6654 11.8604 17.9039 12.3609 18.0115C12.8424 18.1163 13.3129 18.2349 13.7678 18.3493C14.2281 18.4651 14.7041 18.5844 15.1964 18.692C15.2087 18.6947 15.221 18.6968 15.2333 18.6981C15.6656 18.7461 16.0659 18.5241 16.4253 18.0368C16.4328 18.0327 16.4424 18.0279 16.4499 18.0245C16.5044 17.9971 16.5869 17.956 16.6701 17.8717C16.8638 17.6771 17.0241 17.4667 17.1795 17.2632C17.44 16.9219 17.6862 16.5991 18.0483 16.4134C18.2904 16.3085 18.4173 16.0893 18.5196 15.9118C18.5571 15.8467 18.5925 15.785 18.63 15.7343C18.7964 15.5815 18.9792 15.4362 19.1565 15.2957C19.595 14.9482 20.0485 14.5892 20.3479 14.0491L20.4379 13.9587C20.4651 13.9313 20.4877 13.8998 20.5054 13.8648C20.5177 13.8401 20.5299 13.8134 20.5429 13.7846C20.5606 13.7449 20.5899 13.6791 20.6077 13.6613C20.6288 13.64 20.6595 13.6174 20.7134 13.625C20.862 13.6859 21.0127 13.7586 21.171 13.8353C21.4294 13.9601 21.6967 14.0889 21.9736 14.1739C22.1516 14.2397 22.3221 14.2664 22.4728 14.2897C22.6344 14.315 22.7735 14.337 22.8847 14.4007C23.2598 14.6138 23.656 14.7838 24.0392 14.9476C24.6802 15.2224 25.2865 15.4814 25.7761 15.9214C25.8791 16.0283 25.948 16.1872 26.0209 16.3558C26.0537 16.4312 26.0878 16.5093 26.126 16.5875C26.143 16.6224 26.1662 16.6539 26.1935 16.6813L26.2733 16.7615C26.469 17.1837 26.7622 17.4776 27.1257 17.6147C27.1298 17.6161 27.1339 17.6174 27.138 17.6195C27.4107 17.7106 27.8486 17.6825 28.3116 17.6524C28.5905 17.6346 28.9376 17.612 29.0624 17.6401C29.0651 17.6401 29.0672 17.6414 29.0699 17.6414C29.1395 17.6551 29.2575 17.6736 29.4061 17.6963C29.6414 17.7326 30.1297 17.8073 30.2408 17.8504C30.2715 17.8648 30.3036 17.8751 30.337 17.8806C30.4809 17.9046 31.068 18.0718 31.5713 18.2328C31.1226 18.535 30.6664 18.8427 30.1938 19.1635L30.1788 19.1744C29.9428 19.3471 29.7103 19.489 29.4852 19.6267C29.2868 19.748 29.0815 19.8741 28.8749 20.0194L28.8394 20.0468C28.5741 20.2688 28.3055 20.4422 28.0211 20.6259C27.7995 20.7691 27.5696 20.9178 27.3364 21.0932L27.2519 21.157L27.198 21.2488C26.9961 21.5935 26.7711 22.0129 26.5529 22.4179C26.3701 22.7578 26.1826 23.1066 26.0107 23.4081C25.8539 23.4102 25.6977 23.4143 25.5422 23.4184L24.6939 23.4438L22.9229 23.4136L20.6895 21.7778C20.5006 21.6394 20.2401 21.673 20.0908 21.8484C20.058 21.8628 20.0267 21.8813 19.9973 21.9032L18.0927 23.3389C18.0142 23.3979 17.959 23.476 17.9276 23.5623C17.8819 23.6411 17.8553 23.7323 17.8553 23.8296V25.2461C16.22 26.4392 14.6939 27.5685 13.0831 28.7609C11.5003 29.9328 9.86296 31.145 8.11241 32.4224L8.079 32.4471L8.04967 32.4765C7.9692 32.5574 7.92215 32.6465 7.89419 32.7342C6.70556 30.3823 6.03521 27.7234 6.03521 24.9096H6.03453ZM22.3875 28.0455L22.4435 28.0688L22.8479 28.2339C22.9508 28.275 23.0531 28.3162 23.1561 28.3573V30.3789H22.3875V28.0455ZM21.9218 32.4101H21.1491V27.5137C21.1798 27.5267 21.2112 27.539 21.2419 27.5528L21.6408 27.7282L21.9225 27.8495V32.4108L21.9218 32.4101ZM20.6834 32.6444V35.916H19.88V26.9634C20.0553 27.0669 20.2381 27.156 20.4283 27.2314C20.5129 27.2649 20.5981 27.2971 20.6834 27.3293V32.6444ZM18.6109 26.2857L19.4143 26.7167V32.4101H18.6109V26.2857ZM8.90415 34.4749L8.91029 33.1557C9.19193 32.9501 9.47016 32.7466 9.74635 32.5437V35.6426C9.45039 35.2657 9.16942 34.8757 8.90483 34.4749H8.90415ZM10.2537 36.2593V32.1709C10.5313 31.9674 10.8054 31.7652 11.0775 31.5644V36.6486H10.6015C10.4842 36.5204 10.3676 36.3909 10.2537 36.2593ZM11.5433 31.2204C11.8045 31.0278 12.0629 30.8367 12.32 30.6461V33.7971H11.5433V31.2204ZM33.6724 38.7558C33.6649 36.9405 33.6662 35.1622 33.6771 33.3482C33.6771 33.266 33.7105 31.3369 35.665 31.3369C37.6195 31.3369 37.6522 33.2591 37.6529 33.3462C37.6467 33.7382 37.6447 34.1281 37.6474 34.5269C36.5665 36.1504 35.2211 37.5813 33.6724 38.7565V38.7558ZM38.2421 33.5668C38.2428 33.4949 38.2434 33.4236 38.2448 33.3517C38.2448 33.351 38.2448 33.3503 38.2448 33.3489C38.2448 33.3476 38.2448 33.3476 38.2448 33.3462C38.2448 33.3195 38.2414 32.6917 37.9284 32.0599C37.6304 31.4582 36.9962 30.7407 35.6643 30.7407C34.3325 30.7407 33.6983 31.4582 33.4003 32.0599C33.0907 32.6862 33.0838 33.3064 33.0838 33.3448C33.0729 35.302 33.0722 37.2181 33.0811 39.1841C30.2974 41.1173 26.9245 42.2522 23.2925 42.2522C18.5093 42.2522 14.1749 40.2861 11.0461 37.1166H11.31C11.4389 37.1166 11.5426 37.0118 11.5426 36.883V34.2658H12.5525C12.6814 34.2658 12.7851 34.161 12.7851 34.0322V30.3028C13.0954 30.0732 13.4043 29.8444 13.7105 29.6175C15.2101 28.5074 16.636 27.452 18.1445 26.3494V32.6444C18.1445 32.774 18.2488 32.8781 18.377 32.8781H19.4136V36.1497C19.4136 36.2792 19.5179 36.3834 19.6461 36.3834H20.9152C21.0441 36.3834 21.1478 36.2785 21.1478 36.1497V32.8781H22.1536C22.2825 32.8781 22.3862 32.7733 22.3862 32.6444V30.8469H23.3873C23.5162 30.8469 23.6198 30.7421 23.6198 30.6133V28.543C23.9042 28.6547 24.1892 28.7643 24.4777 28.8692C24.4995 28.8767 24.5248 28.8699 24.5391 28.8507C24.5568 28.8267 24.5514 28.7931 24.5275 28.7753C24.0563 28.4272 23.5755 28.0976 23.0954 27.7659L22.734 27.5205L22.3712 27.278L22.0057 27.0395L21.6388 26.8037C21.3933 26.6482 21.1594 26.4707 20.9207 26.3035C20.7257 26.1671 20.5204 26.0506 20.3049 25.9526C20.281 25.9341 20.2551 25.9163 20.2271 25.9012L18.9124 25.1954V23.944L20.5006 22.7468L22.5478 24.2462L22.5737 24.2661H22.5758L22.6255 24.3024L22.8963 24.3072C23.1527 24.3374 23.4077 24.36 23.6621 24.373C23.9813 24.3908 24.299 24.3997 24.6134 24.4052C24.9278 24.4107 25.2401 24.41 25.549 24.4134C25.6868 24.4148 25.8232 24.4169 25.9596 24.4196C25.9589 24.5772 25.9582 24.7342 25.9596 24.8918L25.9582 25.8923L25.9623 27.8933C25.9712 29.2276 25.9841 30.5625 26.0128 31.8975C26.0421 33.2331 26.0837 34.5687 26.1471 35.9044C26.2119 37.2407 26.2903 38.5763 26.4233 39.9119C26.5576 38.577 26.6477 37.242 26.7281 35.9078C26.8072 34.5735 26.8679 33.2386 26.915 31.903C26.962 30.568 26.99 29.2317 27.0064 27.8954C27.0111 27.2272 27.0159 26.5591 27.0145 25.8902C27.0111 25.2707 27.0091 24.6512 26.9989 24.0317C27.0016 24.0119 27.0016 23.9913 26.9982 23.9708C26.9982 23.942 26.9975 23.9132 26.9968 23.8844L26.9954 23.8172C27.1543 23.5349 27.3207 23.2258 27.483 22.9229C27.6767 22.5625 27.8765 22.1911 28.0552 21.8806C28.2298 21.7538 28.4071 21.6394 28.5926 21.5195C28.8858 21.3303 29.1886 21.1343 29.4982 20.8774C29.6714 20.7567 29.848 20.6485 30.0349 20.534C30.2756 20.3867 30.5252 20.2339 30.7932 20.0386C31.2678 19.7165 31.7261 19.4081 32.1769 19.1045C33.3396 18.3212 34.4382 17.5811 35.6555 16.7245C35.6561 16.7245 35.6568 16.7238 35.6575 16.7231C36.7541 17.4352 37.807 18.1424 38.9506 18.9346L38.9813 18.9558L39.0058 18.9681C39.057 18.9983 39.2418 19.121 39.3652 19.2032C39.4968 19.2909 39.5889 19.3519 39.6564 19.3951C40.0015 20.4258 40.2518 21.5003 40.3984 22.607C39.8351 22.5454 39.3414 22.5515 39.0577 22.5639V22.3124C39.0577 22.2082 38.9888 22.1164 38.8892 22.0876L36.9191 21.5202C36.8693 21.5058 36.8168 21.5085 36.7684 21.5277L34.7982 22.3199C34.7096 22.3555 34.6516 22.4412 34.6516 22.5371V23.4397C32.2607 23.2985 28.6021 25.1405 28.4418 25.2221C28.3273 25.2803 28.2809 25.4208 28.3389 25.5366C28.3798 25.6182 28.4616 25.6648 28.5469 25.6648C28.5823 25.6648 28.6178 25.6566 28.6519 25.6394C28.6914 25.6196 32.6201 23.6398 34.8548 23.9283C34.921 23.9365 34.9878 23.9159 35.0383 23.8721C35.0888 23.8275 35.1174 23.7638 35.1174 23.6966V22.6954L36.8673 21.9916L38.5919 22.4885V22.8126C38.5919 22.8784 38.6199 22.9414 38.6683 22.9853C38.7167 23.0299 38.7815 23.0518 38.847 23.0449C38.8558 23.0442 39.5889 22.9778 40.4557 23.084C40.5184 23.6829 40.5511 24.2915 40.5511 24.9069C40.5511 25.2118 40.5429 25.5154 40.5273 25.8169H34.9074C34.7785 25.8169 34.6748 25.9218 34.6748 26.0506V28.4704C34.6748 28.5992 34.7785 28.704 34.9074 28.704L38.3771 28.7109C38.5046 28.7109 38.6083 28.6074 38.6096 28.4793L38.6212 27.4383H40.3663C40.0444 29.6408 39.3093 31.7097 38.2421 33.5634V33.5668Z" fill="#FBFBFB"/>
<path d="M0.563288 34.8175C0.547603 34.7818 0.541466 34.7599 0.544193 34.7517C0.547603 34.7434 0.566698 34.7311 0.602159 34.7153L2.64663 33.7964C2.67254 33.7847 2.68823 33.771 2.69436 33.7559C2.7005 33.7409 2.69709 33.7196 2.6855 33.6936L2.61321 33.5305C2.60162 33.5044 2.58798 33.4887 2.57298 33.4825C2.55797 33.4763 2.53683 33.4798 2.51092 33.4914L0.184127 34.5365C0.158213 34.5481 0.142528 34.5618 0.136391 34.5769C0.130253 34.592 0.133663 34.6132 0.145256 34.6393L0.66217 35.8015C0.673763 35.8276 0.687402 35.8433 0.702404 35.8495C0.717407 35.8557 0.738547 35.8522 0.764461 35.8406L0.905624 35.7775C0.931538 35.7659 0.947222 35.7522 0.95336 35.7371C0.959497 35.722 0.956088 35.7008 0.944495 35.6748L0.563288 34.8175Z" fill="#FBFBFB"/>
<path d="M4.20078 36.8049C4.22533 36.7912 4.23965 36.7761 4.24442 36.7603C4.24852 36.7446 4.24442 36.724 4.2301 36.6993L4.14281 36.5438C4.12918 36.5191 4.11417 36.5047 4.09849 36.4999C4.0828 36.4958 4.06234 36.4999 4.03779 36.5143L2.74074 37.2531C2.48092 37.4011 2.26201 37.4511 2.08471 37.4038C1.90672 37.3565 1.76897 37.2448 1.6694 37.0694C1.57052 36.894 1.54597 36.7172 1.59712 36.5397C1.64758 36.3622 1.80306 36.1991 2.06288 36.0511L3.35994 35.3123C3.38449 35.2986 3.39881 35.2835 3.40359 35.2678C3.40768 35.252 3.40359 35.2315 3.38927 35.2068L3.30198 35.0512C3.28834 35.0266 3.27334 35.0122 3.25765 35.0074C3.24197 35.0033 3.22151 35.0074 3.19696 35.0218L1.92718 35.7454C1.58484 35.9407 1.37344 36.1682 1.29297 36.428C1.21318 36.6877 1.24933 36.9522 1.4014 37.2222C1.55347 37.4922 1.76147 37.6594 2.02401 37.7239C2.28656 37.7883 2.58935 37.7232 2.93236 37.5279L4.20214 36.8042L4.20078 36.8049Z" fill="#FBFBFB"/>
<path d="M2.72164 38.7497C2.70664 38.7285 2.71414 38.7168 2.74415 38.7148L5.13504 38.6058C5.15959 38.6044 5.18414 38.5948 5.20937 38.577L5.36077 38.4694C5.38395 38.453 5.39691 38.4365 5.39964 38.4208C5.40236 38.4043 5.39554 38.3851 5.37918 38.3618L4.48856 37.0934C4.47219 37.0701 4.45583 37.057 4.44014 37.0543C4.42377 37.0516 4.40468 37.0584 4.38149 37.0749L4.25533 37.1646C4.23215 37.1811 4.21919 37.1975 4.21646 37.2133C4.21374 37.2297 4.22056 37.2489 4.23692 37.2722L4.94751 38.2837C4.96251 38.3049 4.95501 38.3166 4.925 38.3187L2.53411 38.4276C2.50956 38.429 2.48501 38.4386 2.45978 38.4564L2.30838 38.564C2.2852 38.5804 2.27224 38.5969 2.26951 38.6126C2.26679 38.6291 2.2736 38.649 2.28997 38.6716L3.16763 39.9209C3.184 39.9442 3.20037 39.9572 3.21605 39.9599C3.23242 39.9627 3.25151 39.9558 3.2747 39.9394L3.40086 39.8496C3.42404 39.8331 3.437 39.8167 3.43973 39.8009C3.44246 39.7845 3.43564 39.7653 3.41927 39.742L2.72232 38.7497H2.72164Z" fill="#FBFBFB"/>
<path d="M4.88545 40.4772L5.00479 40.3785C5.04434 40.3456 5.05321 40.3155 5.03002 40.2874L4.50561 39.6452C4.48242 39.6171 4.45173 39.6199 4.4115 39.6528L4.29216 39.7515C4.2526 39.7844 4.24374 39.8145 4.26693 39.8426L4.79134 40.4847C4.81453 40.5128 4.84521 40.5101 4.88545 40.4772Z" fill="#FBFBFB"/>
<path d="M6.36731 41.9375C6.38573 41.7895 6.37482 41.6422 6.33458 41.4948C6.29435 41.3475 6.25207 41.2029 6.20706 41.0624C6.16205 40.9213 6.13614 40.789 6.12932 40.665C6.1225 40.5416 6.15318 40.4463 6.22206 40.3806C6.3189 40.288 6.43074 40.2641 6.55689 40.3093C6.68305 40.3545 6.79762 40.4463 6.89991 40.5841C7.0022 40.7218 7.07858 40.8794 7.12905 41.0563C7.13723 41.0912 7.15496 41.1063 7.18224 41.1015L7.37455 41.046C7.40592 41.0377 7.41887 41.0179 7.4141 40.9864L7.38955 40.887C7.37318 40.8205 7.33704 40.7321 7.28112 40.6211C7.22588 40.5101 7.15905 40.4093 7.08063 40.3196C6.89855 40.1044 6.71033 39.9858 6.51598 39.9625C6.32162 39.9392 6.15591 39.9899 6.01816 40.1147C5.90632 40.2147 5.83949 40.3381 5.81767 40.4861C5.79585 40.6341 5.80471 40.7828 5.84358 40.9329C5.88245 41.083 5.92473 41.2303 5.96906 41.3749C6.01407 41.5195 6.03862 41.6559 6.04407 41.7827C6.04885 41.9101 6.01475 42.0095 5.93974 42.0808C5.82585 42.1897 5.69492 42.213 5.54625 42.152C5.39759 42.091 5.27143 41.9739 5.16709 41.8025C5.06276 41.6305 5.01161 41.4517 5.01229 41.2646C5.01161 41.2228 4.99047 41.2015 4.94819 41.2029L4.75929 41.2118C4.71769 41.2125 4.69655 41.2337 4.69792 41.2762C4.69996 41.3386 4.70337 41.3873 4.70814 41.4222C4.71292 41.4571 4.72383 41.5175 4.74088 41.6031C4.75793 41.6888 4.79066 41.7751 4.8384 41.8635C4.88613 41.9519 4.94751 42.0403 5.02184 42.1301C5.19028 42.3302 5.38395 42.4501 5.60286 42.4906C5.82244 42.531 6.01611 42.4707 6.18387 42.3103C6.28821 42.2103 6.34958 42.0869 6.368 41.9389L6.36731 41.9375Z" fill="#FBFBFB"/>
<path d="M8.70297 41.9083C8.70161 41.8939 8.6982 41.8822 8.69206 41.8733C8.68593 41.8644 8.67501 41.8535 8.65933 41.8398L8.52499 41.7233C8.5018 41.7027 8.48271 41.6917 8.4677 41.689C8.4527 41.6862 8.42883 41.6945 8.39542 41.7137L6.04817 43.0609C6.00111 43.0883 5.99702 43.1185 6.03589 43.1528L6.18524 43.2823C6.21047 43.3042 6.23024 43.3159 6.24388 43.3179C6.25752 43.32 6.28139 43.3111 6.31481 43.2919L6.84536 42.9835C6.8665 42.9712 6.88218 42.965 6.89309 42.9664C6.90401 42.967 6.91969 42.9766 6.93878 42.9931L7.63982 43.6023C7.6596 43.6194 7.67051 43.6332 7.67324 43.6441C7.67597 43.6551 7.67256 43.6715 7.66301 43.6941L7.43592 44.2664C7.42501 44.291 7.41956 44.3102 7.41956 44.3239C7.41956 44.3376 7.42296 44.3486 7.4291 44.3575C7.43524 44.3664 7.44683 44.3781 7.46456 44.3931L7.61391 44.5227C7.65278 44.5562 7.6821 44.548 7.70256 44.4966L8.68797 41.9672C8.69888 41.9425 8.70366 41.9227 8.70297 41.9083ZM8.25903 42.205L7.82327 43.2932C7.81235 43.3213 7.79667 43.3261 7.77485 43.3076L7.20815 42.8156C7.18701 42.7971 7.18906 42.78 7.21565 42.7656L8.22425 42.1742C8.23448 42.1659 8.24471 42.1659 8.25425 42.1742C8.2638 42.1824 8.26585 42.1927 8.25903 42.2043V42.205Z" fill="#FBFBFB"/>
<path d="M9.97889 42.9136C9.97684 42.8971 9.96389 42.8807 9.94138 42.8636L9.79886 42.7567C9.77635 42.7395 9.75658 42.7327 9.74021 42.7347C9.72384 42.7368 9.70748 42.7498 9.69043 42.7724L8.16901 44.8276C8.15196 44.8502 8.14514 44.8701 8.14719 44.8865C8.14923 44.903 8.16219 44.9194 8.18469 44.9366L8.32722 45.0435C8.34972 45.0606 8.3695 45.0675 8.38587 45.0654C8.40223 45.0627 8.4186 45.0503 8.43565 45.0277L9.95707 42.9725C9.97412 42.9499 9.98094 42.93 9.97889 42.9136Z" fill="#FBFBFB"/>
<path d="M12.157 44.3587C12.1536 44.3429 12.1393 44.3272 12.1154 44.3121L11.9654 44.2168C11.9415 44.2018 11.9217 44.1956 11.9054 44.1997C11.8897 44.2031 11.874 44.2175 11.859 44.2415L10.8429 45.8636C10.8361 45.8745 10.8279 45.8787 10.819 45.8759C10.8102 45.8732 10.8047 45.8636 10.8027 45.8471L10.6663 43.45C10.6629 43.4116 10.6506 43.3849 10.6288 43.3712L10.5176 43.3006C10.4938 43.2855 10.474 43.2794 10.4576 43.2835C10.4419 43.2869 10.4262 43.3013 10.4112 43.3253L9.05349 45.4928C9.03849 45.5168 9.03235 45.5367 9.03644 45.5531C9.03985 45.5689 9.05417 45.5847 9.07804 45.5997L9.22807 45.695C9.25194 45.7101 9.27171 45.7162 9.28808 45.7121C9.30376 45.7087 9.31945 45.6943 9.33445 45.6703L10.3505 44.0483C10.3574 44.0373 10.3656 44.0332 10.3744 44.0359C10.3833 44.0387 10.3887 44.0483 10.3908 44.0647L10.5272 46.4618C10.5306 46.5002 10.5429 46.5269 10.5647 46.5406L10.6758 46.6112C10.6997 46.6263 10.7195 46.6325 10.7358 46.6284C10.7515 46.6249 10.7672 46.6105 10.7822 46.5866L12.14 44.419C12.155 44.395 12.1611 44.3751 12.157 44.3587Z" fill="#FBFBFB"/>
<path d="M13.9505 45.5775C13.9662 45.572 13.9799 45.5569 13.9928 45.5316L14.0617 45.3924C14.074 45.3671 14.0781 45.3465 14.0726 45.3308C14.0671 45.315 14.0521 45.3013 14.0269 45.2883L12.5266 44.5379C12.5014 44.5249 12.4809 44.5214 12.4653 44.5269C12.4496 44.5324 12.4359 44.5475 12.423 44.5728L12.3541 44.712C12.3418 44.7373 12.3377 44.7579 12.3432 44.7736C12.3486 44.7894 12.3636 44.8031 12.3889 44.8161L12.9215 45.0827C12.9563 45.0998 12.9747 45.1128 12.9774 45.1218C12.9801 45.1307 12.9733 45.1519 12.9563 45.1869L11.9586 47.2016C11.9463 47.227 11.9422 47.2475 11.9477 47.2633C11.9531 47.279 11.9681 47.2927 11.9934 47.3058L12.1522 47.3853C12.1775 47.3983 12.1979 47.4017 12.2136 47.3962C12.2293 47.3907 12.2429 47.3757 12.2559 47.3503L13.2536 45.3356C13.2706 45.3006 13.2836 45.2821 13.2925 45.2794C13.3013 45.2766 13.3225 45.2835 13.3572 45.3006L13.8898 45.5672C13.9151 45.5802 13.9355 45.5836 13.9512 45.5782L13.9505 45.5775Z" fill="#FBFBFB"/>
<path d="M14.5452 47.1122L13.7814 46.7956C13.748 46.7819 13.7214 46.799 13.7023 46.847L13.6437 46.9902C13.6239 47.0382 13.6307 47.069 13.6641 47.0827L14.4279 47.3993C14.4613 47.413 14.4879 47.3959 14.507 47.3479L14.5656 47.2047C14.5854 47.1567 14.5786 47.1259 14.5452 47.1122Z" fill="#FBFBFB"/>
<path d="M16.2616 47.5549C16.1566 47.4438 16.0516 47.3369 15.9459 47.2341C15.8402 47.1314 15.755 47.0265 15.6902 46.921C15.6261 46.8154 15.6083 46.7168 15.6383 46.6263C15.6799 46.4981 15.7672 46.4248 15.9002 46.4043C16.0325 46.3837 16.1764 46.4104 16.3319 46.4831C16.4867 46.5557 16.6285 46.6585 16.756 46.7908C16.7799 46.8175 16.8024 46.8223 16.8242 46.8052L16.9675 46.6647C16.9906 46.6427 16.9934 46.6188 16.9743 46.5934L16.9054 46.5173C16.8597 46.4666 16.7861 46.4056 16.6844 46.3344C16.5835 46.2631 16.4771 46.2062 16.366 46.1637C16.1041 46.0609 15.8825 46.0459 15.7004 46.1178C15.5183 46.1898 15.3963 46.3131 15.3335 46.4886C15.2817 46.6297 15.2817 46.7702 15.3315 46.9107C15.3819 47.0512 15.4597 47.178 15.5647 47.2917C15.6697 47.4055 15.7761 47.5151 15.8838 47.6213C15.9916 47.7276 16.0775 47.8358 16.1416 47.9455C16.2057 48.0551 16.2221 48.1593 16.19 48.2573C16.1409 48.4074 16.0366 48.4903 15.8763 48.5074C15.7168 48.5239 15.5504 48.4814 15.3778 48.3793C15.2053 48.2772 15.0751 48.1442 14.9884 47.9791C14.968 47.9421 14.9393 47.9345 14.9025 47.9551L14.7402 48.0531C14.7034 48.0736 14.6959 48.1024 14.7164 48.1394C14.7477 48.1935 14.7736 48.2347 14.7941 48.2628C14.8146 48.2909 14.8527 48.3395 14.908 48.4067C14.9632 48.4738 15.0328 48.5348 15.1167 48.5896C15.2005 48.6445 15.296 48.6938 15.4038 48.7377C15.6458 48.8343 15.8729 48.848 16.0857 48.7788C16.2978 48.7103 16.4403 48.565 16.5126 48.3436C16.5576 48.2059 16.5535 48.0675 16.4996 47.929C16.4458 47.7899 16.3667 47.6652 16.2623 47.5549H16.2616Z" fill="#FBFBFB"/>
<path d="M18.5441 46.7936C18.5366 46.7813 18.5277 46.7724 18.5182 46.7676C18.5086 46.7628 18.4936 46.758 18.4739 46.7539L18.3006 46.7148C18.2706 46.708 18.2481 46.7073 18.2338 46.7121C18.2195 46.7169 18.2024 46.7354 18.182 46.7683L16.7479 49.0708C16.7192 49.1174 16.7294 49.1462 16.7799 49.1579L16.9722 49.201C17.005 49.2086 17.0275 49.2093 17.0404 49.2045C17.0534 49.1997 17.0704 49.1805 17.0909 49.1483L17.4134 48.624C17.4257 48.6028 17.4373 48.5905 17.4475 48.5857C17.4578 48.5815 17.4755 48.5822 17.5007 48.5877L18.405 48.7912C18.4302 48.7967 18.4466 48.8036 18.4541 48.8118C18.4616 48.82 18.4664 48.8365 18.4691 48.8611L18.5386 49.4731C18.5407 49.4998 18.5448 49.5197 18.5516 49.5314C18.5584 49.543 18.5659 49.5519 18.5755 49.5567C18.585 49.5615 18.6007 49.5663 18.6239 49.5718L18.8162 49.615C18.8667 49.6259 18.8885 49.6047 18.8823 49.5505L18.5605 46.8539C18.5584 46.8272 18.5536 46.8073 18.5461 46.795L18.5441 46.7936ZM18.3852 48.4678L17.6542 48.3033C17.6262 48.2971 17.6208 48.2814 17.6371 48.256L18.2475 47.2562C18.2529 47.2439 18.2618 47.2397 18.2741 47.2425C18.2863 47.2452 18.2925 47.2535 18.2925 47.2665L18.4207 48.4328C18.4248 48.463 18.4125 48.4746 18.3852 48.4685V48.4678Z" fill="#FBFBFB"/>
<path d="M21.6135 47.2363L21.4369 47.2157C21.409 47.2123 21.3885 47.2157 21.3755 47.226C21.3626 47.2363 21.3544 47.2555 21.351 47.2836L21.1771 48.7714C21.1423 49.0695 21.053 49.2764 20.9098 49.3922C20.7666 49.508 20.5954 49.5546 20.3956 49.5307C20.1965 49.5074 20.0403 49.4224 19.9278 49.2757C19.8152 49.1298 19.7764 48.9077 19.8112 48.6096L19.9851 47.1219C19.9885 47.0938 19.9851 47.0732 19.9748 47.0602C19.9646 47.0472 19.9455 47.0389 19.9175 47.0355L19.7409 47.015C19.713 47.0115 19.6925 47.015 19.6795 47.0252C19.6666 47.0355 19.6584 47.0547 19.655 47.0828L19.4845 48.5397C19.4381 48.9331 19.4961 49.2387 19.657 49.4566C19.818 49.6752 20.0519 49.802 20.3588 49.8383C20.6656 49.8747 20.9227 49.8054 21.1294 49.6307C21.3367 49.456 21.4628 49.1722 21.5092 48.7789L21.6797 47.322C21.6831 47.2939 21.6797 47.2733 21.6695 47.2603C21.6592 47.2473 21.6401 47.239 21.6122 47.2356L21.6135 47.2363Z" fill="#FBFBFB"/>
<path d="M24.0972 47.2986L23.9042 47.2952C23.868 47.2952 23.8442 47.2979 23.8326 47.3055C23.821 47.313 23.808 47.335 23.7951 47.3706L23.0436 49.458C23.0381 49.471 23.0306 49.4772 23.0204 49.4772C23.0102 49.4772 23.0027 49.4703 22.9972 49.4573L22.3125 47.3466C22.305 47.326 22.2989 47.3103 22.2941 47.3C22.2893 47.2897 22.2818 47.2822 22.273 47.2781C22.2641 47.274 22.2559 47.2712 22.2477 47.2699C22.2402 47.2685 22.2259 47.2678 22.2055 47.2671L22.0125 47.2637C21.9613 47.263 21.9436 47.2884 21.9613 47.3404L22.8199 49.9158C22.8274 49.9418 22.8363 49.9603 22.8458 49.9706C22.856 49.9809 22.8656 49.9877 22.8745 49.9904C22.8833 49.9932 22.8983 49.9946 22.9188 49.9952L23.1043 49.998C23.1329 49.998 23.1534 49.9952 23.1663 49.987C23.1793 49.9795 23.1922 49.9576 23.2059 49.9219L24.1463 47.3754C24.1654 47.324 24.149 47.2979 24.0972 47.2973V47.2986Z" fill="#FBFBFB"/>
<path d="M26.2821 49.554C26.2699 49.543 26.2494 49.5389 26.2208 49.5416L25.1044 49.6328C25.0662 49.6362 25.043 49.6348 25.0362 49.6287C25.0294 49.6225 25.0239 49.6006 25.0212 49.5615L24.9557 48.7529C24.9523 48.7145 24.9537 48.6912 24.9598 48.6843C24.966 48.6775 24.9878 48.672 25.0267 48.6692L25.9507 48.5939C25.9787 48.5918 25.9984 48.5843 26.0087 48.5713C26.0196 48.5589 26.0237 48.5384 26.0209 48.5096L26.0087 48.3547C26.0066 48.3266 25.9991 48.3067 25.9862 48.2965C25.9739 48.2855 25.9534 48.2814 25.9248 48.2841L25.0008 48.3595C24.9626 48.3629 24.9394 48.3616 24.9326 48.3554C24.9257 48.3492 24.9203 48.3273 24.9176 48.2882L24.8637 47.6269C24.8603 47.5885 24.8616 47.5652 24.8678 47.5584C24.8739 47.5515 24.8957 47.5461 24.9346 47.5433L26.0509 47.4522C26.0789 47.4501 26.0987 47.4426 26.1089 47.4296C26.1198 47.4172 26.1239 47.3967 26.1212 47.3679L26.1089 47.213C26.1069 47.1849 26.0994 47.165 26.0864 47.1548C26.0741 47.1438 26.0537 47.1397 26.025 47.1424L24.5779 47.261C24.55 47.263 24.5302 47.2706 24.52 47.2836C24.5091 47.2959 24.505 47.3165 24.5077 47.3453L24.7143 49.898C24.7164 49.9261 24.7239 49.9459 24.7368 49.9562C24.7491 49.9672 24.7696 49.9713 24.7982 49.9686L26.2453 49.85C26.2733 49.8479 26.293 49.8404 26.3033 49.8274C26.3142 49.815 26.3183 49.7945 26.3155 49.7657L26.3033 49.6108C26.3012 49.5827 26.2937 49.5629 26.2808 49.5526L26.2821 49.554Z" fill="#FBFBFB"/>
<path d="M28.4691 46.8114C28.4643 46.7834 28.4548 46.7648 28.4412 46.7553C28.4275 46.7457 28.4071 46.7436 28.3791 46.7491L28.2045 46.7806C28.1766 46.7854 28.1582 46.795 28.1486 46.8087C28.1391 46.8224 28.137 46.843 28.1425 46.8711L28.4084 48.3451C28.4616 48.6405 28.4364 48.8646 28.3334 49.0174C28.2304 49.1702 28.0797 49.2648 27.882 49.3004C27.6842 49.336 27.5103 49.3004 27.3603 49.1942C27.2102 49.0873 27.1086 48.8865 27.0554 48.5911L26.7895 47.1171C26.7847 47.089 26.7752 47.0705 26.7615 47.0609C26.7479 47.0513 26.7274 47.0492 26.6995 47.0547L26.5249 47.0862C26.4969 47.091 26.4785 47.1006 26.469 47.1143C26.4594 47.128 26.4574 47.1486 26.4628 47.1767L26.7233 48.6199C26.7936 49.0092 26.9375 49.2846 27.155 49.4464C27.3726 49.6081 27.6331 49.6609 27.9372 49.6054C28.2413 49.5499 28.4671 49.4087 28.6144 49.1805C28.7617 48.9523 28.7999 48.6439 28.7303 48.2547L28.4698 46.8114H28.4691Z" fill="#FBFBFB"/>
<path d="M30.4761 47.7969C30.8552 47.5968 30.9855 47.2912 30.8655 46.8786C30.7945 46.6326 30.6636 46.4654 30.4727 46.377C30.2824 46.2886 30.041 46.2872 29.7491 46.3722L28.9779 46.5977C28.9506 46.6059 28.9328 46.6169 28.9253 46.6312C28.9172 46.6456 28.9172 46.6669 28.9253 46.6936L29.6373 49.1531C29.6455 49.1805 29.6564 49.1983 29.6707 49.2059C29.685 49.2141 29.7062 49.2141 29.7328 49.2059L29.9032 49.1558C29.9305 49.1476 29.9483 49.1367 29.9558 49.1223C29.9639 49.1079 29.9639 49.0866 29.9558 49.0599L29.6884 48.1361C29.6775 48.0991 29.6741 48.0765 29.6789 48.0683C29.683 48.0601 29.7041 48.0512 29.7409 48.0402L30.1412 47.923L31.0414 48.7673C31.0632 48.7879 31.0796 48.7995 31.0898 48.8016C31.1001 48.8043 31.1198 48.8009 31.1492 48.792L31.3681 48.7282C31.3878 48.7227 31.3994 48.7118 31.4028 48.696C31.4063 48.6803 31.3988 48.6631 31.3797 48.6439L30.4747 47.7969H30.4761ZM30.1303 47.603L29.6557 47.7414C29.6189 47.7524 29.5964 47.7558 29.5882 47.751C29.58 47.7469 29.5711 47.7257 29.5602 47.6886L29.3318 46.8985C29.3209 46.8615 29.3175 46.8389 29.3222 46.8307C29.3263 46.8224 29.3475 46.8135 29.3843 46.8026L29.8589 46.6641C30.2319 46.5552 30.4638 46.6566 30.5545 46.9698C30.6452 47.283 30.504 47.494 30.1303 47.603Z" fill="#FBFBFB"/>
<path d="M2.46727 18.1849L2.52933 18.0177C2.53956 17.9909 2.54024 17.9711 2.53342 17.9574C2.52592 17.9437 2.50955 17.9306 2.48432 17.9183L0.917897 17.1857C0.903576 17.1802 0.897439 17.172 0.900167 17.1604C0.902894 17.1487 0.912442 17.1439 0.928808 17.1439L2.79733 17.1405C2.83552 17.1405 2.86212 17.1206 2.8778 17.0795L2.92349 16.9562C2.9385 16.915 2.93168 16.8821 2.90235 16.8575L1.49278 15.6246C1.47982 15.6144 1.47641 15.6041 1.48186 15.5938C1.48732 15.5835 1.49687 15.5808 1.51119 15.5863L3.1724 16.0639C3.19968 16.0714 3.22082 16.0721 3.23514 16.0667C3.24946 16.0612 3.26174 16.0447 3.27197 16.018L3.33402 15.8508C3.35312 15.8001 3.33812 15.7665 3.28833 15.7507L0.825835 15.0552C0.798557 15.0476 0.777417 15.0469 0.763096 15.0524C0.748775 15.0579 0.7365 15.0744 0.726271 15.1011L0.672397 15.2464C0.660122 15.2799 0.665578 15.3087 0.690128 15.332L2.36771 16.7979C2.37658 16.804 2.3793 16.8116 2.37521 16.8212C2.3718 16.8307 2.3643 16.8349 2.35407 16.8342L0.130934 16.8376C0.0975183 16.839 0.0743322 16.8568 0.0620572 16.8904L0.00818361 17.0356C-0.00204556 17.0624 -0.0027275 17.0822 0.00409194 17.0966C0.0115933 17.1103 0.02796 17.1234 0.0531919 17.1357L2.36703 18.2315C2.41408 18.252 2.4475 18.237 2.46659 18.1856L2.46727 18.1849Z" fill="#FBFBFB"/>
<path d="M3.42881 15.4689C3.46632 15.5087 3.49632 15.5059 3.52019 15.46L3.61157 15.2846C3.62726 15.2544 3.63408 15.2332 3.63271 15.2188C3.63135 15.2051 3.61771 15.1838 3.5918 15.1557L3.17172 14.7076C3.15467 14.6897 3.14581 14.6754 3.14376 14.6644C3.1424 14.6534 3.14717 14.6363 3.15944 14.6137L3.58839 13.7886C3.59998 13.766 3.61089 13.7516 3.62112 13.7468C3.63067 13.742 3.64772 13.7413 3.67227 13.7454L4.27852 13.8359C4.30511 13.8407 4.32489 13.842 4.33784 13.8386C4.35148 13.8352 4.36103 13.8297 4.36853 13.8215C4.37535 13.8133 4.38422 13.7989 4.39513 13.7783L4.48651 13.6029C4.51038 13.557 4.49537 13.5302 4.4415 13.522L1.76623 13.1369C1.73964 13.1321 1.71986 13.1314 1.70554 13.1355C1.6919 13.1396 1.68099 13.1458 1.67417 13.154C1.66735 13.1622 1.65849 13.1753 1.64962 13.1938L1.56711 13.3521C1.55278 13.3795 1.54596 13.4007 1.54665 13.4158C1.54733 13.4309 1.56097 13.4528 1.58688 13.4809L3.42881 15.4682V15.4689ZM2.06629 13.5145C2.07243 13.5028 2.08129 13.4994 2.09425 13.5028L3.2481 13.6796C3.2781 13.6837 3.28629 13.6981 3.27333 13.7235L2.92622 14.391C2.91326 14.4163 2.89621 14.4177 2.87576 14.3951L2.07243 13.5439C2.0622 13.5357 2.06015 13.5254 2.06629 13.5145Z" fill="#FBFBFB"/>
<path d="M2.51433 11.8256L4.67677 13.1817C4.70064 13.1968 4.7211 13.2023 4.73678 13.1989C4.75247 13.1954 4.76815 13.1811 4.78315 13.1571L4.87726 13.0056C4.89226 12.9816 4.89772 12.9611 4.89431 12.9453C4.8909 12.9296 4.87658 12.9138 4.85271 12.8987L2.69027 11.5425C2.6664 11.5275 2.64594 11.522 2.63026 11.5254C2.61457 11.5288 2.59889 11.5432 2.58388 11.5672L2.48978 11.7186C2.47477 11.7426 2.46932 11.7632 2.47273 11.779C2.47614 11.7947 2.49046 11.8105 2.51433 11.8256Z" fill="#FBFBFB"/>
<path d="M3.51952 11.2306C3.63749 11.3231 3.77047 11.3662 3.91914 11.3608C4.0678 11.3553 4.21169 11.3196 4.35149 11.2539C4.49129 11.1881 4.62768 11.1195 4.76134 11.049C4.895 10.9784 5.0232 10.929 5.14732 10.9009C5.27075 10.8728 5.3744 10.8893 5.4576 10.9496C5.58512 11.0421 5.63218 11.1675 5.59876 11.3258C5.56603 11.4841 5.47465 11.6301 5.32599 11.7644C5.17732 11.8987 5.01093 11.9823 4.82817 12.0152C4.78725 12.0234 4.77088 12.0488 4.77907 12.0899L4.82203 12.2749C4.83021 12.3161 4.85544 12.3325 4.89636 12.3243C4.95705 12.3106 5.00411 12.2989 5.03684 12.288C5.07026 12.277 5.12686 12.2558 5.20733 12.2229C5.2878 12.1906 5.3669 12.1427 5.44464 12.0789C5.52239 12.0152 5.59808 11.9391 5.67241 11.8494C5.83744 11.6465 5.91996 11.4334 5.91928 11.2093C5.91928 10.9852 5.82449 10.805 5.63695 10.6686C5.52034 10.5836 5.38804 10.546 5.24006 10.5549C5.09208 10.5638 4.94955 10.6015 4.81316 10.6679C4.67609 10.7344 4.54311 10.8029 4.41286 10.8728C4.28329 10.9427 4.15782 10.9928 4.03848 11.0222C3.91845 11.0517 3.82025 11.038 3.74319 10.9825C3.63476 10.9037 3.59112 10.7975 3.61226 10.6645C3.6334 10.5316 3.70228 10.402 3.81889 10.276C3.9355 10.1499 4.0753 10.0457 4.23965 9.96415C4.27238 9.94976 4.28398 9.9292 4.27443 9.90316L4.18509 9.72293C4.17145 9.69346 4.14963 9.68386 4.11963 9.69483L4.02688 9.73732C3.96483 9.7661 3.88504 9.8175 3.78616 9.89288C3.68727 9.96826 3.60135 10.0525 3.5277 10.1457C3.35039 10.365 3.26856 10.5727 3.28152 10.7687C3.29447 10.9647 3.37426 11.1195 3.52156 11.2333L3.51952 11.2306Z" fill="#FBFBFB"/>
<path d="M6.3605 10.2745C6.73897 10.2587 7.0554 10.1114 7.30976 9.83382C7.56413 9.55559 7.68347 9.22666 7.66778 8.84632C7.6521 8.46599 7.50548 8.14801 7.22929 7.8924C6.95242 7.63679 6.62509 7.51686 6.24661 7.53262C5.86813 7.54838 5.55171 7.69572 5.29734 7.97326C5.04298 8.25149 4.92364 8.58043 4.93932 8.96076C4.95501 9.3411 5.10163 9.65907 5.37781 9.91468C5.65468 10.1703 5.98202 10.2902 6.3605 10.2745ZM5.52443 8.18365C5.72151 7.96847 5.96292 7.85676 6.25002 7.84991C6.53644 7.84237 6.78807 7.93831 7.00425 8.13842C7.22043 8.33784 7.33636 8.5818 7.35341 8.86962C7.36977 9.15744 7.27976 9.40894 7.08267 9.62412C6.88559 9.8393 6.64418 9.95101 6.35709 9.95786C6.07067 9.9654 5.81903 9.86946 5.60286 9.66935C5.38668 9.46993 5.27075 9.22597 5.2537 8.93815C5.23733 8.65033 5.32735 8.39883 5.52443 8.18365Z" fill="#FBFBFB"/>
<path d="M8.5168 8.45435C8.53522 8.47628 8.55227 8.48792 8.56863 8.4893C8.585 8.49067 8.60409 8.48244 8.62592 8.46394L8.7623 8.3495C8.78413 8.33099 8.79572 8.31386 8.79708 8.29741C8.79845 8.28097 8.79026 8.26178 8.77185 8.23985L7.54572 6.77128C7.53753 6.76168 7.53617 6.75278 7.54094 6.74455C7.5464 6.73701 7.55663 6.73427 7.57299 6.7377L9.88615 7.34007C9.92366 7.34898 9.9523 7.34486 9.97207 7.32842L10.0723 7.24344C10.0941 7.22494 10.1057 7.20781 10.1071 7.19136C10.1085 7.17491 10.1003 7.15572 10.0819 7.1338L8.44315 5.17182C8.42474 5.14989 8.40769 5.13824 8.39133 5.13687C8.37496 5.13549 8.35587 5.14372 8.33404 5.16222L8.19765 5.27666C8.17583 5.29517 8.16424 5.3123 8.16288 5.32875C8.16151 5.34519 8.16969 5.36438 8.18811 5.38631L9.41424 6.85488C9.42243 6.86448 9.42379 6.87339 9.41902 6.88161C9.41356 6.88915 9.40333 6.89189 9.38696 6.88846L7.07381 6.28609C7.0363 6.27719 7.00766 6.2813 6.98789 6.29774L6.88764 6.38272C6.86582 6.40122 6.85422 6.41835 6.85286 6.4348C6.8515 6.45125 6.85968 6.47044 6.87809 6.49237L8.5168 8.45435Z" fill="#FBFBFB"/>
<path d="M11.1668 6.34935C11.1812 6.37402 11.1968 6.38772 11.2125 6.39184C11.2282 6.39595 11.2487 6.39047 11.2725 6.37608L11.9838 5.94571C12.3145 5.74561 12.528 5.47012 12.6248 5.11994C12.7217 4.76976 12.6658 4.42095 12.4571 4.07282C12.2484 3.7247 11.9674 3.51226 11.6142 3.43482C11.2609 3.35738 10.9193 3.41837 10.5885 3.61848L9.87728 4.04884C9.85273 4.06323 9.83909 4.07899 9.835 4.09475C9.83091 4.11051 9.83636 4.13107 9.85069 4.15506L11.1662 6.34866L11.1668 6.34935ZM10.3219 4.14272L10.7488 3.88437C11.0066 3.72812 11.2671 3.68015 11.5303 3.73977C11.7929 3.79939 12.0077 3.96797 12.1734 4.24483C12.3398 4.52169 12.3875 4.791 12.3173 5.05278C12.247 5.31456 12.0834 5.52289 11.8249 5.67914L11.398 5.93749C11.3646 5.95736 11.3441 5.96627 11.3353 5.96422C11.3264 5.96216 11.3121 5.94434 11.2923 5.91076L10.296 4.24894C10.2762 4.21605 10.2674 4.1948 10.2694 4.18589C10.2714 4.17699 10.2892 4.16259 10.3226 4.14272H10.3219Z" fill="#FBFBFB"/>
<path d="M13.017 3.99945C13.1786 4.36059 13.3845 4.59291 13.6348 4.69639C13.8851 4.80055 14.1503 4.78821 14.432 4.66075C14.7136 4.53329 14.8984 4.34072 14.9864 4.08374C15.0744 3.82675 15.0376 3.51769 14.8759 3.15723L14.2758 1.81955C14.2642 1.7935 14.2506 1.77774 14.2356 1.77158C14.2206 1.76541 14.1994 1.76883 14.1735 1.78048L14.0119 1.85381C13.986 1.86546 13.9703 1.87917 13.9642 1.89424C13.9587 1.90932 13.9614 1.93056 13.973 1.95592L14.5854 3.3217C14.7082 3.59513 14.7375 3.81853 14.6748 3.99259C14.6113 4.16597 14.4879 4.29412 14.3051 4.37704C14.1224 4.45996 13.9451 4.46818 13.7732 4.40103C13.6021 4.33387 13.4548 4.16323 13.332 3.8898L12.7196 2.52402C12.708 2.49798 12.6944 2.48222 12.6794 2.47605C12.6644 2.46988 12.6432 2.47331 12.6173 2.48496L12.4557 2.55829C12.4298 2.56994 12.4141 2.58364 12.408 2.59872C12.4018 2.61379 12.4052 2.63504 12.4168 2.66108L13.017 3.99876V3.99945Z" fill="#FBFBFB"/>
<path d="M16.5194 3.72972C16.5276 3.75714 16.5385 3.77495 16.5528 3.78249C16.5671 3.79071 16.5883 3.79071 16.6149 3.78249L16.7854 3.73247C16.8126 3.72424 16.8304 3.71328 16.8379 3.69889C16.8454 3.68449 16.8461 3.66325 16.8379 3.63652L16.6135 2.86146C16.6026 2.82446 16.5992 2.80184 16.604 2.79362C16.6081 2.7854 16.6292 2.77649 16.666 2.76552L17.0479 2.65382C17.3296 2.57159 17.526 2.42699 17.6364 2.22072C17.7469 2.01445 17.7674 1.79104 17.6978 1.54982C17.6283 1.3086 17.4912 1.13111 17.288 1.01667C17.0847 0.902225 16.842 0.886463 16.5603 0.968698L15.8593 1.1736C15.832 1.18182 15.8143 1.19279 15.8068 1.20718C15.7986 1.22157 15.7986 1.24281 15.8068 1.26954L16.5194 3.72904V3.72972ZM16.2023 1.40728C16.2064 1.39906 16.2275 1.39015 16.2644 1.37919L16.6094 1.27845C16.8195 1.21677 16.9893 1.2202 17.1195 1.28873C17.2491 1.35726 17.3384 1.47444 17.3868 1.64097C17.4353 1.80749 17.423 1.95483 17.35 2.08229C17.2771 2.20975 17.1359 2.30501 16.9252 2.366L16.5801 2.46674C16.5433 2.4777 16.5208 2.48113 16.5126 2.47633C16.5044 2.47222 16.4955 2.45098 16.4846 2.41397L16.2125 1.47513C16.2016 1.43812 16.1982 1.41551 16.203 1.40728H16.2023Z" fill="#FBFBFB"/>
<path d="M18.3402 3.28057L18.5339 3.24425C18.5666 3.23808 18.5884 3.22986 18.598 3.22027C18.6082 3.21067 18.6157 3.18669 18.6219 3.14831L18.7125 2.53909C18.716 2.5151 18.7214 2.49866 18.7289 2.49043C18.7364 2.48221 18.7528 2.47604 18.7787 2.47125L19.6898 2.29992C19.715 2.29513 19.7327 2.29513 19.743 2.29992C19.7532 2.30472 19.7641 2.31774 19.7757 2.33899L20.0798 2.8742C20.0921 2.89818 20.1037 2.91463 20.1146 2.92285C20.1255 2.93107 20.1358 2.93587 20.1467 2.93656C20.1576 2.93656 20.174 2.93519 20.1965 2.93107L20.3901 2.89475C20.4406 2.88516 20.4522 2.85706 20.4256 2.80909L19.0726 0.457869C19.0603 0.433884 19.0481 0.417437 19.0358 0.409214C19.0235 0.40099 19.0126 0.396193 19.0017 0.395508C18.9908 0.395508 18.9758 0.396193 18.9553 0.400305L18.7807 0.433199C18.7501 0.438681 18.7296 0.446904 18.718 0.456498C18.7071 0.466778 18.6982 0.490763 18.6921 0.528454L18.2761 3.21204C18.2679 3.26618 18.2891 3.28879 18.3395 3.2792L18.3402 3.28057ZM18.7753 2.11284L18.9444 0.951962C18.9444 0.938941 18.9512 0.930718 18.9635 0.928662C18.9765 0.926606 18.9846 0.931403 18.9901 0.943738L19.565 1.96482C19.58 1.99086 19.5738 2.00662 19.5459 2.0121L18.8094 2.15053C18.7814 2.15601 18.7698 2.14368 18.7753 2.11353V2.11284Z" fill="#FBFBFB"/>
<path d="M20.8409 2.82915C20.8532 2.84012 20.8736 2.84423 20.9023 2.84217L21.0796 2.82847C21.1075 2.82641 21.1273 2.81887 21.1382 2.80654C21.1491 2.7942 21.1532 2.77364 21.1512 2.74486L21.0768 1.78546C21.0741 1.74708 21.0755 1.72378 21.0809 1.71693C21.0864 1.71008 21.1089 1.70528 21.1478 1.70185L21.5638 1.66896L22.2737 2.67976C22.2914 2.70443 22.3043 2.71882 22.3139 2.72362C22.3234 2.72842 22.3432 2.7291 22.3739 2.72636L22.601 2.70854C22.6215 2.70717 22.6351 2.69895 22.6419 2.68387C22.6487 2.6688 22.6446 2.65029 22.6296 2.62836L21.9156 1.61414C22.3275 1.49627 22.5164 1.22284 22.483 0.794532C22.4632 0.53892 22.3691 0.348409 22.2 0.223002C22.0316 0.0975939 21.7956 0.0461973 21.4928 0.0701824L20.6922 0.133229C20.6643 0.135285 20.6445 0.142823 20.6336 0.155158C20.6227 0.167493 20.6186 0.188052 20.6206 0.216834L20.8191 2.77022C20.8211 2.79831 20.8286 2.81819 20.8409 2.82915ZM20.98 0.432015C20.9861 0.425162 21.008 0.420365 21.0468 0.416938L21.5399 0.377877C21.9272 0.347724 22.1339 0.494376 22.1591 0.819888C22.1843 1.14471 22.0029 1.32289 21.6156 1.35304L21.1225 1.3921C21.0843 1.39484 21.0612 1.39347 21.0543 1.38799C21.0475 1.38182 21.0427 1.35989 21.0393 1.32083L20.9752 0.500543C20.9725 0.462167 20.9739 0.438867 20.9793 0.432015H20.98Z" fill="#FBFBFB"/>
<path d="M24.3638 2.74632C24.6189 2.75386 24.8575 2.69287 25.0799 2.56472C25.1269 2.53731 25.1358 2.49893 25.1065 2.4489L25.0294 2.31459C25.0076 2.27758 24.9728 2.27141 24.9257 2.29609C24.7478 2.39477 24.5636 2.44137 24.3734 2.43588C24.0829 2.42766 23.8401 2.31733 23.6471 2.10489C23.4534 1.89245 23.3607 1.63889 23.3689 1.34353C23.377 1.04886 23.4841 0.800787 23.6894 0.599312C23.8946 0.397837 24.1429 0.301897 24.4334 0.31012C24.6236 0.315603 24.805 0.372481 24.9769 0.480757C25.0226 0.508168 25.0574 0.504057 25.0812 0.468422L25.1658 0.338902C25.1978 0.290932 25.1917 0.251871 25.146 0.221718C24.9312 0.0812339 24.6959 0.00722279 24.4416 -0.00031538C24.0658 -0.01128 23.7405 0.114128 23.465 0.375908C23.1895 0.637003 23.047 0.956347 23.0361 1.33394C23.0252 1.71153 23.15 2.03842 23.4105 2.31527C23.6703 2.59213 23.9881 2.73536 24.3638 2.74632Z" fill="#FBFBFB"/>
<path d="M26.3708 2.89201L26.5454 2.92354C26.5733 2.92833 26.5938 2.92628 26.6074 2.91668C26.6211 2.90709 26.6299 2.88859 26.6354 2.86049L26.9723 0.973206C26.9743 0.960186 26.9804 0.953333 26.99 0.952648C26.9995 0.951963 27.0077 0.958815 27.0159 0.973206L28.0368 3.1442C28.0538 3.17915 28.0756 3.19834 28.1009 3.20313L28.2298 3.22643C28.2577 3.23123 28.2782 3.22918 28.2918 3.21958C28.3055 3.20999 28.3143 3.19148 28.3198 3.16339L28.7699 0.642212C28.7746 0.614115 28.7726 0.593557 28.763 0.579851C28.7535 0.566145 28.7351 0.557237 28.7071 0.551754L28.5325 0.520231C28.5046 0.515434 28.4841 0.51749 28.4705 0.527084C28.4568 0.536678 28.448 0.555181 28.4425 0.583277L28.1056 2.47056C28.1036 2.48358 28.0975 2.49043 28.0886 2.49112C28.0791 2.49181 28.0709 2.48495 28.0627 2.47056L27.0418 0.299568C27.0248 0.264618 27.0029 0.24543 26.9777 0.240633L26.8481 0.217334C26.8202 0.212537 26.7997 0.214592 26.7861 0.224186C26.7724 0.23378 26.7636 0.252283 26.7581 0.28038L26.308 2.80156C26.3033 2.82965 26.3053 2.85021 26.3149 2.86392C26.3244 2.87762 26.3428 2.88653 26.3708 2.89201Z" fill="#FBFBFB"/>
<path d="M28.7269 3.34045L28.9158 3.39733C28.9478 3.40692 28.9703 3.40966 28.984 3.40555C28.9976 3.40144 29.0154 3.38362 29.0379 3.35278L29.3972 2.85321C29.4116 2.83334 29.4238 2.821 29.4341 2.81757C29.4443 2.81415 29.462 2.8162 29.4866 2.82306L30.3738 3.09169C30.3983 3.09923 30.414 3.10745 30.4208 3.11636C30.4277 3.12527 30.4311 3.14172 30.4318 3.16639L30.457 3.78178C30.457 3.8085 30.4597 3.82838 30.4652 3.8414C30.4706 3.85442 30.4781 3.86264 30.4877 3.86812C30.4965 3.8736 30.5122 3.87977 30.5347 3.88662L30.7236 3.9435C30.7727 3.95858 30.7966 3.93871 30.7939 3.88388L30.6663 1.17083C30.6663 1.1441 30.6629 1.12354 30.6561 1.11121C30.6493 1.09887 30.6411 1.08928 30.6322 1.0838C30.6234 1.07831 30.6084 1.07283 30.5893 1.06666L30.4195 1.01527C30.3902 1.00636 30.3677 1.00362 30.3533 1.00773C30.339 1.01116 30.3199 1.02897 30.2974 1.05981L28.7017 3.25205C28.6696 3.29659 28.6785 3.32606 28.7276 3.34113L28.7269 3.34045ZM29.6468 2.50371L30.3274 1.55048C30.3336 1.53883 30.3431 1.53472 30.3554 1.53883C30.3677 1.54225 30.3731 1.55116 30.3717 1.56418L30.4161 2.73671C30.4181 2.76686 30.4052 2.77783 30.3779 2.7696L29.6605 2.55237C29.6332 2.54414 29.6291 2.5277 29.6468 2.50371Z" fill="#FBFBFB"/>
<path d="M31.5447 4.28131L31.709 4.34846C31.7356 4.35943 31.7561 4.36148 31.7711 4.35463C31.7861 4.34846 31.7991 4.33202 31.81 4.30529L32.6515 2.21927C32.6658 2.18364 32.6774 2.16377 32.6856 2.15965C32.6938 2.15623 32.7163 2.16171 32.7517 2.1761L33.3027 2.40088C33.3287 2.41184 33.3498 2.4139 33.3648 2.40704C33.3798 2.40088 33.3928 2.38443 33.4037 2.3577L33.4616 2.21379C33.4725 2.18775 33.4746 2.16651 33.4678 2.15143C33.4609 2.13635 33.4453 2.12333 33.4187 2.11237L31.8652 1.47985C31.8393 1.46888 31.8181 1.46683 31.8031 1.47368C31.7881 1.47985 31.7752 1.49629 31.7643 1.52302L31.7063 1.66693C31.6954 1.69297 31.6934 1.71422 31.7002 1.72929C31.7063 1.74437 31.7227 1.75739 31.7493 1.76835L32.3003 1.99313C32.3357 2.00752 32.3555 2.01917 32.3596 2.02739C32.363 2.03562 32.3576 2.05823 32.3432 2.09387L31.5017 4.17988C31.4908 4.20592 31.4888 4.22717 31.4956 4.24224C31.5017 4.25732 31.5181 4.27034 31.5447 4.28131Z" fill="#FBFBFB"/>
<path d="M32.8302 4.82783C32.8356 4.84359 32.8506 4.8573 32.8765 4.86963L33.0361 4.94776C33.0613 4.96009 33.0818 4.96352 33.0975 4.95804C33.1132 4.95255 33.1268 4.93748 33.1391 4.91144L34.252 2.6075C34.2643 2.58214 34.2677 2.56158 34.2622 2.54582C34.2568 2.53006 34.2418 2.51635 34.2159 2.50402L34.0563 2.4259C34.0311 2.41356 34.0106 2.41013 33.9949 2.41562C33.9792 2.4211 33.9656 2.43617 33.9533 2.46222L32.8404 4.76615C32.8281 4.79151 32.8247 4.81207 32.8302 4.82783Z" fill="#FBFBFB"/>
<path d="M34.0918 5.03747C34.1824 5.40684 34.3884 5.68918 34.7103 5.88517C35.0321 6.08048 35.3765 6.13256 35.7441 6.0421C36.1117 5.95096 36.3926 5.744 36.5877 5.42055C36.782 5.09709 36.8338 4.75102 36.7438 4.38165C36.6531 4.01228 36.4472 3.72994 36.1253 3.53395C35.8034 3.33864 35.459 3.28656 35.0915 3.37702C34.7239 3.46816 34.443 3.67512 34.2479 3.99857C34.0536 4.32203 34.0017 4.6681 34.0918 5.03747ZM34.5316 4.17127C34.6837 3.91908 34.8978 3.75598 35.1754 3.68266C35.4529 3.60933 35.7161 3.64839 35.9651 3.79915C36.214 3.9506 36.3708 4.16647 36.4349 4.44744C36.499 4.72841 36.4554 4.99498 36.3033 5.24717C36.1512 5.49935 35.9371 5.66245 35.6595 5.73578C35.382 5.8091 35.1188 5.77004 34.8698 5.61859C34.6209 5.46715 34.4641 5.25128 34.4 4.97031C34.3359 4.68934 34.3795 4.42277 34.5316 4.17058V4.17127Z" fill="#FBFBFB"/>
<path d="M36.2692 6.85622C36.2712 6.87267 36.2828 6.8898 36.3053 6.90762L36.4445 7.01863C36.4663 7.03645 36.4861 7.04399 36.5024 7.04262C36.5188 7.04056 36.5358 7.02891 36.5536 7.0063L37.7429 5.50757C37.7511 5.49729 37.7592 5.49455 37.7681 5.49798C37.777 5.5014 37.7811 5.51168 37.7811 5.52813L37.6515 7.92595C37.6501 7.96502 37.6597 7.99243 37.6801 8.00819L37.7831 8.09042C37.8049 8.10824 37.8247 8.11646 37.8411 8.11441C37.8574 8.11235 37.8745 8.1007 37.8922 8.07809L39.4812 6.07568C39.4989 6.05375 39.5064 6.03387 39.505 6.01811C39.503 6.00167 39.4914 5.98453 39.4689 5.96672L39.3298 5.8557C39.3079 5.83788 39.2882 5.83034 39.2718 5.83171C39.2554 5.83377 39.2384 5.84542 39.2207 5.86803L38.0313 7.36676C38.0232 7.37704 38.015 7.38047 38.0061 7.37635C37.9972 7.37293 37.9932 7.36265 37.9932 7.3462L38.1227 4.94838C38.1241 4.90932 38.1145 4.8819 38.0941 4.86614L37.9911 4.78391C37.9693 4.76609 37.9495 4.75855 37.9331 4.75992C37.9168 4.76198 37.8997 4.77363 37.882 4.79624L36.2931 6.79866C36.2753 6.82058 36.2672 6.84046 36.2692 6.85691V6.85622Z" fill="#FBFBFB"/>
<path d="M38.1664 8.42976L38.3055 8.56956C38.3294 8.59355 38.3478 8.60657 38.3614 8.60931C38.375 8.61205 38.3989 8.6052 38.4337 8.58875L38.9854 8.32012C39.0072 8.30915 39.0236 8.30435 39.0345 8.30641C39.0454 8.30847 39.0597 8.31806 39.0781 8.33656L39.7328 8.99581C39.7512 9.01431 39.7608 9.0287 39.7628 9.03967C39.7648 9.05063 39.7601 9.06708 39.7492 9.08901L39.4812 9.64341C39.4682 9.66739 39.4614 9.68589 39.4607 9.6996C39.46 9.71331 39.4621 9.72496 39.4675 9.73386C39.473 9.74277 39.4839 9.75579 39.5002 9.77224L39.6394 9.91204C39.6755 9.94836 39.7055 9.94219 39.7294 9.89285L40.8982 7.44363C40.9112 7.41965 40.9173 7.40046 40.9173 7.38607C40.9173 7.37168 40.9146 7.35934 40.9091 7.35043C40.9037 7.34152 40.8935 7.32919 40.8791 7.3148L40.7537 7.1887C40.7318 7.16678 40.7134 7.15375 40.6991 7.15033C40.6848 7.1469 40.6602 7.15307 40.6255 7.16952L38.1855 8.33862C38.1364 8.3626 38.1295 8.39276 38.1664 8.42908V8.42976ZM39.3714 8.13166L40.4209 7.61701C40.4318 7.60947 40.442 7.61084 40.4509 7.61975C40.4597 7.62866 40.4611 7.63894 40.4536 7.6499L39.9387 8.70319C39.9258 8.7306 39.9094 8.73403 39.8896 8.71416L39.3605 8.181C39.3407 8.16113 39.3441 8.14468 39.3714 8.13166Z" fill="#FBFBFB"/>
<path d="M39.9476 10.2602C39.9462 10.2767 39.9544 10.2959 39.9722 10.3178L40.7782 11.2998C40.7959 11.3217 40.8137 11.3334 40.83 11.3348C40.8464 11.3361 40.8655 11.3279 40.8873 11.3101L41.0067 11.2114C41.0285 11.1936 41.0401 11.1758 41.0421 11.1593C41.0435 11.1429 41.0353 11.1237 41.0176 11.1018L40.4229 10.3774C40.3984 10.3473 40.3868 10.3281 40.3875 10.3192C40.3881 10.3103 40.4038 10.2931 40.4332 10.2684L42.1605 8.8362C42.1823 8.81838 42.1939 8.80056 42.1953 8.78411C42.1967 8.76767 42.1885 8.74848 42.1707 8.72655L42.0575 8.58881C42.0398 8.56688 42.0221 8.55523 42.0057 8.55386C41.9893 8.55249 41.9703 8.56071 41.9484 8.57853L39.9824 10.2081C39.9606 10.226 39.949 10.2438 39.9469 10.2602H39.9476Z" fill="#FBFBFB"/>
<path d="M41.5024 12.2743C41.499 12.29 41.5045 12.3106 41.5202 12.3346L42.301 13.5647C42.316 13.5887 42.3317 13.6024 42.348 13.6058C42.3637 13.6092 42.3842 13.6037 42.4081 13.588L42.5383 13.5044C42.5622 13.4893 42.5758 13.4735 42.5792 13.4571C42.5826 13.4406 42.5772 13.4208 42.5615 13.3968L41.9593 12.4477C41.9389 12.4148 41.9293 12.3942 41.9314 12.3853C41.9334 12.3764 41.9505 12.3613 41.9832 12.3407L42.6638 11.9049C42.6965 11.8843 42.717 11.8748 42.7258 11.8768C42.7347 11.8789 42.7497 11.896 42.7702 11.9289L43.2687 12.7142C43.2837 12.7382 43.2994 12.7519 43.3157 12.7553C43.3314 12.7588 43.3519 12.7533 43.3757 12.7375L43.506 12.6539C43.5299 12.6388 43.5435 12.6231 43.5469 12.6066C43.5503 12.5909 43.5449 12.5703 43.5292 12.5463L43.0307 11.761C43.0102 11.7281 43.0007 11.7075 43.0027 11.6986C43.0048 11.6897 43.0218 11.6746 43.0545 11.6541L43.611 11.2971C43.6437 11.2765 43.6642 11.2669 43.6731 11.269C43.6819 11.271 43.6969 11.2881 43.7174 11.321L44.3196 12.2702C44.3346 12.2941 44.3502 12.3079 44.3666 12.3113C44.3823 12.3147 44.4027 12.3092 44.4266 12.2935L44.5569 12.2099C44.5807 12.1948 44.5944 12.179 44.5978 12.1626C44.6012 12.1468 44.5957 12.1263 44.58 12.1023L43.7992 10.8722C43.7842 10.8482 43.7685 10.8345 43.7522 10.8311C43.7365 10.8276 43.716 10.8331 43.6922 10.8489L41.5434 12.2256C41.5195 12.2407 41.5058 12.2565 41.5024 12.2729V12.2743Z" fill="#FBFBFB"/>
<path d="M44.8978 13.3318C44.9156 13.3661 44.9231 13.388 44.9203 13.3969C44.9176 13.4059 44.8992 13.4189 44.8644 13.4367L42.8732 14.4674C42.8479 14.4804 42.8329 14.4948 42.8281 14.5105C42.8234 14.5263 42.8275 14.5469 42.8404 14.5722L42.9216 14.7312C42.9345 14.7566 42.9488 14.7716 42.9645 14.7764C42.9802 14.7812 43.0007 14.7771 43.0259 14.7641L45.0172 13.7334C45.0513 13.7156 45.0731 13.7081 45.082 13.7108C45.0908 13.7135 45.1038 13.732 45.1215 13.767L45.3936 14.2981C45.4066 14.3235 45.4209 14.3385 45.4366 14.3433C45.4523 14.3481 45.4727 14.344 45.498 14.331L45.635 14.2597C45.6603 14.2467 45.6753 14.2323 45.68 14.2165C45.6848 14.2008 45.6807 14.1802 45.6684 14.1549L44.9013 12.6575C44.8883 12.6322 44.874 12.6171 44.8583 12.6123C44.8426 12.6075 44.8221 12.6116 44.7969 12.6246L44.6598 12.6959C44.6346 12.7089 44.6196 12.7233 44.6148 12.7391C44.6101 12.7548 44.6142 12.7754 44.6271 12.8007L44.8992 13.3318H44.8978Z" fill="#FBFBFB"/>
<path d="M43.7665 16.4937C43.7597 16.5088 43.7604 16.5294 43.7699 16.5561L44.0413 17.3449C44.1675 17.7115 44.3912 17.9788 44.7117 18.1466C45.0322 18.3145 45.3834 18.3317 45.766 18.1987C46.1478 18.0658 46.4131 17.8342 46.5625 17.5025C46.7111 17.1715 46.7227 16.8227 46.5966 16.456L46.3251 15.6673C46.3156 15.6405 46.304 15.6234 46.289 15.6159C46.274 15.609 46.2535 15.6097 46.2269 15.6193L43.8183 16.4574C43.7917 16.467 43.7747 16.4787 43.7672 16.4937H43.7665ZM44.1572 16.7027C44.1613 16.6945 44.1818 16.6842 44.2179 16.6712L46.0428 16.0366C46.0796 16.0236 46.1015 16.0195 46.1097 16.0236C46.1178 16.0277 46.1281 16.0483 46.141 16.0846L46.304 16.5575C46.4022 16.8432 46.3954 17.1098 46.2829 17.3558C46.1703 17.6018 45.9617 17.778 45.6575 17.8835C45.3534 17.989 45.0813 17.9808 44.8412 17.8575C44.6012 17.7341 44.4321 17.5299 44.3332 17.2434L44.1702 16.7706C44.1572 16.7336 44.1532 16.7117 44.1572 16.7034V16.7027Z" fill="#FBFBFB"/>
<path d="M44.6121 19.11C44.6032 19.1237 44.6019 19.145 44.6087 19.1724L44.9299 20.5957C44.936 20.6238 44.9463 20.6416 44.9599 20.6505C44.9735 20.6594 44.9947 20.6608 45.022 20.654L45.1727 20.6197C45.2006 20.6135 45.2184 20.6033 45.2272 20.5895C45.2361 20.5758 45.2375 20.5546 45.2306 20.5272L44.9831 19.4294C44.9742 19.3917 44.9729 19.3684 44.9776 19.3608C44.9824 19.3533 45.0035 19.3451 45.0417 19.3362L45.8287 19.1566C45.8662 19.1477 45.8887 19.1463 45.8969 19.1511C45.9044 19.1559 45.9126 19.1772 45.9214 19.2155L46.126 20.1236C46.1322 20.1516 46.1424 20.1695 46.156 20.1784C46.1697 20.1873 46.1908 20.1887 46.2181 20.1818L46.3688 20.1475C46.3968 20.1414 46.4145 20.1311 46.4234 20.1174C46.4322 20.1037 46.4336 20.0824 46.4268 20.055L46.2222 19.147C46.2133 19.1093 46.2119 19.0867 46.2167 19.0785C46.2215 19.0709 46.2426 19.0627 46.2808 19.0538L46.9246 18.9072C46.9621 18.8983 46.9846 18.8969 46.9928 18.9017C47.0003 18.9065 47.0085 18.9277 47.0173 18.9654L47.2649 20.0632C47.271 20.0913 47.2812 20.1092 47.2949 20.1181C47.3085 20.127 47.3297 20.1283 47.3569 20.1215L47.5076 20.0872C47.5356 20.0811 47.5533 20.0708 47.5622 20.0571C47.5711 20.0434 47.5724 20.0221 47.5656 19.9947L47.2444 18.5714C47.2383 18.5433 47.228 18.5255 47.2144 18.5165C47.2008 18.5076 47.1796 18.5063 47.1523 18.5131L44.6667 19.0792C44.6387 19.0853 44.621 19.0956 44.6121 19.1093V19.11Z" fill="#FBFBFB"/>
<path d="M45.1454 21.9015C45.1352 21.9145 45.1311 21.9351 45.1338 21.9632L45.2606 23.2296C45.2634 23.2577 45.2715 23.2776 45.2838 23.2879C45.2968 23.2981 45.3172 23.3022 45.3452 23.2995L45.4986 23.2837C45.5266 23.281 45.5464 23.2728 45.5566 23.2604C45.5668 23.2474 45.5709 23.2269 45.5682 23.1988L45.4748 22.264C45.4707 22.2257 45.472 22.2024 45.4775 22.1955C45.4829 22.1887 45.5054 22.1832 45.5436 22.1791L47.7722 21.9543C47.8002 21.9515 47.82 21.9433 47.8302 21.931C47.8404 21.918 47.8445 21.8974 47.8418 21.8693L47.8241 21.6918C47.8213 21.6637 47.8131 21.6439 47.8009 21.6336C47.7879 21.6233 47.7675 21.6192 47.7395 21.6219L45.2033 21.8782C45.1754 21.881 45.1556 21.8892 45.1454 21.9015Z" fill="#FBFBFB"/>
<path d="M47.9973 24.4307C47.9973 24.3999 47.9925 24.3779 47.9843 24.3649C47.9761 24.3519 47.9543 24.3395 47.9182 24.3272L45.3547 23.4644C45.3029 23.4473 45.2777 23.4644 45.2784 23.5158L45.2818 23.7139C45.2818 23.7475 45.2865 23.7701 45.2947 23.7817C45.3029 23.7934 45.3247 23.805 45.3609 23.8174L45.9433 24.0099C45.9664 24.0175 45.9814 24.0257 45.9883 24.0346C45.9951 24.0435 45.9985 24.0606 45.9985 24.0867L46.0135 25.018C46.0135 25.044 46.0108 25.0612 46.0046 25.0707C45.9985 25.0797 45.9835 25.0886 45.9603 25.0968L45.3841 25.3079C45.3582 25.3161 45.3404 25.325 45.3302 25.3339C45.32 25.3428 45.3138 25.3531 45.3111 25.3634C45.3084 25.3736 45.3077 25.3908 45.3084 25.4141L45.3118 25.6121C45.3125 25.6635 45.3384 25.68 45.3895 25.6615L47.9236 24.7158C47.9495 24.7075 47.9673 24.698 47.9775 24.6877C47.9877 24.6774 47.9939 24.6664 47.9966 24.6561C47.9993 24.6459 48 24.6301 48 24.6095L47.9973 24.4314V24.4307ZM47.4626 24.552L46.3647 24.9501C46.3367 24.9611 46.3224 24.9522 46.3217 24.9234L46.3095 24.171C46.3095 24.1422 46.3231 24.1333 46.3517 24.1429L47.4619 24.5054C47.4749 24.5074 47.4817 24.5157 47.4817 24.5287C47.4817 24.5417 47.4756 24.5492 47.4626 24.552Z" fill="#FBFBFB"/>
<path d="M47.8438 26.9757L45.1965 27.5253C45.1699 27.5294 45.1508 27.5362 45.1392 27.5452C45.1277 27.5541 45.1202 27.563 45.1161 27.5712C45.112 27.5801 45.1092 27.5945 45.1065 27.6151L45.0813 27.7994C45.0772 27.8275 45.0786 27.8487 45.0847 27.8624C45.0908 27.8761 45.1106 27.8919 45.1447 27.9097L47.5486 29.1515C47.597 29.1761 47.6249 29.1631 47.6317 29.1117L47.6577 28.9192C47.6624 28.8835 47.6618 28.8589 47.6556 28.8465C47.6495 28.8342 47.6297 28.8191 47.5956 28.8013L45.6227 27.8021C45.6105 27.7953 45.605 27.7864 45.6071 27.7761C45.6084 27.7658 45.6159 27.759 45.6296 27.7555L47.7968 27.3238C47.8179 27.319 47.8343 27.3149 47.8452 27.3108C47.8561 27.3074 47.8643 27.3012 47.8691 27.2923C47.8738 27.2841 47.8779 27.2758 47.88 27.2683C47.882 27.2608 47.8848 27.2471 47.8875 27.2265L47.9134 27.0339C47.9202 26.9825 47.897 26.9627 47.8438 26.9736V26.9757Z" fill="#FBFBFB"/>
<path d="M47.2683 30.3802L45.0063 28.8938C44.9606 28.8637 44.9313 28.8739 44.9197 28.9247L44.8726 29.1172C44.8644 29.1501 44.8631 29.1727 44.8678 29.1858C44.8726 29.1988 44.891 29.2159 44.9231 29.2371L45.4379 29.5716C45.4584 29.5846 45.4707 29.5962 45.4754 29.6065C45.4795 29.6168 45.4789 29.6346 45.4727 29.66L45.2531 30.5646C45.247 30.5899 45.2395 30.6057 45.2313 30.6132C45.2231 30.6207 45.2068 30.6249 45.1822 30.6269L44.5719 30.6852C44.5453 30.6865 44.5255 30.6906 44.5132 30.6968C44.5009 30.703 44.4928 30.7112 44.4873 30.7208C44.4825 30.7304 44.4771 30.7462 44.4716 30.7688L44.4246 30.9613C44.4123 31.0114 44.4334 31.034 44.488 31.0285L47.1776 30.7578C47.2042 30.7564 47.2239 30.7516 47.2362 30.7441C47.2485 30.7366 47.2574 30.7277 47.2621 30.7187C47.2669 30.7091 47.2717 30.6948 47.2771 30.6742L47.3194 30.5008C47.3269 30.4707 47.3283 30.4481 47.3235 30.4337C47.3187 30.4193 47.301 30.4015 47.269 30.3802H47.2683ZM46.7711 30.4816L45.6084 30.5879C45.5784 30.5913 45.5668 30.5789 45.5736 30.5515L45.7516 29.8203C45.7585 29.7929 45.7741 29.7874 45.7994 29.8039L46.7827 30.4364C46.7943 30.4419 46.7991 30.4508 46.7957 30.4638C46.793 30.4761 46.7848 30.4823 46.7711 30.4816Z" fill="#FBFBFB"/>
<path d="M46.7582 32.2503L44.3509 31.4074C44.3243 31.3978 44.3032 31.3971 44.2889 31.404C44.2739 31.4108 44.2623 31.4279 44.2527 31.4547L43.836 32.6567C43.8265 32.6834 43.8258 32.7046 43.8326 32.719C43.8395 32.7334 43.8565 32.7458 43.8838 32.7554L44.0297 32.8068C44.0563 32.8163 44.0775 32.817 44.0918 32.8102C44.1068 32.8033 44.1184 32.7862 44.1279 32.7588L44.4355 31.872C44.4484 31.8357 44.4587 31.8151 44.4668 31.811C44.475 31.8069 44.4975 31.811 44.5337 31.824L46.6491 32.5648C46.6757 32.5744 46.6968 32.5751 46.7111 32.5683C46.7261 32.5614 46.7377 32.5443 46.7473 32.5169L46.8059 32.3483C46.8155 32.3216 46.8161 32.3003 46.8093 32.2859C46.8025 32.2709 46.7855 32.2592 46.7582 32.2496V32.2503Z" fill="#FBFBFB"/>
<path d="M46.0681 34.1375L43.7379 33.0993C43.7119 33.0877 43.6915 33.0849 43.6758 33.0911C43.6608 33.0973 43.6472 33.113 43.6356 33.1391L43.1221 34.3027C43.1105 34.3287 43.1077 34.3493 43.1139 34.365C43.12 34.3801 43.1357 34.3938 43.1616 34.4055L43.3028 34.4685C43.3287 34.4802 43.3491 34.4829 43.3648 34.4767C43.3798 34.4706 43.3935 34.4548 43.4051 34.4288L43.7842 33.5701C43.7999 33.5345 43.8122 33.5153 43.8204 33.5119C43.8286 33.5084 43.8511 33.5146 43.8858 33.5304L45.9337 34.4432C45.9596 34.4548 45.9801 34.4576 45.9958 34.4514C46.0108 34.4452 46.0244 34.4295 46.036 34.4034L46.1083 34.2403C46.1199 34.2143 46.1226 34.1937 46.1165 34.178C46.1103 34.1629 46.0947 34.1492 46.0687 34.1375H46.0681Z" fill="#FBFBFB"/>
<path d="M45.2688 36.0179C45.264 36.0022 45.2497 35.9871 45.2252 35.9734L42.9952 34.7323C42.9707 34.7186 42.9502 34.7138 42.9345 34.7186C42.9188 34.7234 42.9038 34.7378 42.8902 34.7625L42.1864 36.0392C42.1728 36.0638 42.168 36.0844 42.1728 36.1001C42.1776 36.1159 42.1919 36.131 42.2164 36.1447L42.3515 36.2201C42.376 36.2338 42.3965 36.2386 42.4122 36.2338C42.4278 36.229 42.4428 36.2146 42.4565 36.1899L42.9993 35.2052C43.0177 35.1709 43.032 35.1531 43.0402 35.1503C43.0491 35.1476 43.0702 35.1558 43.1043 35.175L43.8101 35.5684C43.8442 35.5869 43.862 35.6013 43.8647 35.6095C43.8674 35.6184 43.8592 35.6396 43.8401 35.6739L43.3907 36.4887C43.3771 36.5134 43.3723 36.5339 43.3771 36.5497C43.3819 36.5655 43.3962 36.5805 43.4207 36.5942L43.5558 36.6696C43.5803 36.6833 43.6008 36.6881 43.6165 36.6833C43.6322 36.6785 43.6472 36.6641 43.6608 36.6395L44.1102 35.8247C44.1286 35.7904 44.1429 35.7726 44.1511 35.7698C44.16 35.7671 44.1811 35.7753 44.2152 35.7945L44.7928 36.1159C44.8269 36.1344 44.8446 36.1488 44.8474 36.157C44.8501 36.1659 44.8419 36.1872 44.8228 36.2214L44.28 37.2062C44.2664 37.2309 44.2616 37.2514 44.2664 37.2672C44.2711 37.283 44.2855 37.298 44.31 37.3117L44.445 37.3871C44.4696 37.4008 44.49 37.4056 44.5057 37.4008C44.5214 37.396 44.5364 37.3816 44.5501 37.357L45.2538 36.0803C45.2675 36.0556 45.2722 36.035 45.2675 36.0193L45.2688 36.0179Z" fill="#FBFBFB"/>
<path d="M45.4223 36.713C45.4066 36.6718 45.3745 36.6581 45.3254 36.6725L45.2674 36.689C45.2115 36.7054 45.1897 36.7363 45.2033 36.7815L45.3527 37.3434C45.367 37.3928 45.3984 37.4099 45.4475 37.3962L45.558 37.3647C45.6105 37.3496 45.6275 37.316 45.6091 37.2646L45.4229 36.713H45.4223Z" fill="#FBFBFB"/>
<path d="M44.0665 37.9922L41.9634 36.5449C41.9402 36.5291 41.9205 36.5223 41.9041 36.525C41.8877 36.5277 41.8721 36.5415 41.8557 36.5648L41.0353 37.7688C41.0196 37.7921 41.0128 37.812 41.0155 37.8284C41.0183 37.8449 41.0319 37.8606 41.0551 37.8771L41.1826 37.9648C41.2058 37.9806 41.2256 37.9874 41.2419 37.9847C41.2583 37.9819 41.274 37.9682 41.2904 37.9449L41.9232 37.0164C41.945 36.9841 41.9607 36.9677 41.9696 36.9656C41.9784 36.9643 41.9989 36.9739 42.0309 36.9958L42.6972 37.4543C42.7293 37.4762 42.7456 37.4919 42.7477 37.5009C42.749 37.5098 42.7395 37.5303 42.7177 37.5625L42.1939 38.3307C42.1782 38.354 42.1714 38.3739 42.1742 38.3904C42.1769 38.4068 42.1905 38.4226 42.2137 38.439L42.3412 38.5267C42.3644 38.5425 42.3842 38.5493 42.4006 38.5466C42.4169 38.5439 42.4326 38.5302 42.449 38.5069L42.9727 37.7387C42.9945 37.7064 43.0102 37.69 43.0191 37.6879C43.028 37.6866 43.0484 37.6962 43.0805 37.7181L43.6253 38.0929C43.6574 38.1149 43.6738 38.1306 43.6758 38.1395C43.6772 38.1485 43.6676 38.169 43.6458 38.2012L43.0129 39.1298C42.9973 39.1531 42.9904 39.173 42.9932 39.1894C42.9959 39.2059 43.0095 39.2216 43.0327 39.2381L43.1602 39.3258C43.1834 39.3415 43.2032 39.3484 43.2196 39.3457C43.2359 39.3429 43.2516 39.3292 43.268 39.3059L44.0884 38.1019C44.1041 38.0786 44.1109 38.0587 44.1081 38.0422C44.1054 38.0258 44.0918 38.01 44.0686 37.9936L44.0665 37.9922Z" fill="#FBFBFB"/>
</g>
</g>
<defs>
<clipPath id="clip0_248_10235">
<rect width="48" height="50" fill="white"/>
</clipPath>
<clipPath id="clip1_248_10235">
<rect width="48" height="50" fill="white"/>
</clipPath>
</defs>
</svg>
